<?xml version="1.0" encoding="UTF-8"?>
<svg id="Layer_2" data-name="Layer 2" xmlns="http://www.w3.org/2000/svg" viewBox="0 0 762.45 504.4">
  <defs>
    <style>
      .cls-1 {
        stroke: #e6e6e6;
        stroke-width: 5px;
      }

      .cls-1, .cls-2 {
        fill: #999;
      }

      .cls-1, .cls-3 {
        stroke-miterlimit: 10;
      }

      .cls-4 {
        fill: #e6e6e6;
      }

      .cls-5 {
        fill: #fff;
      }

      .cls-6 {
        fill: red;
      }

      .cls-7, .cls-3 {
        fill: #ccc;
      }

      .cls-3 {
        stroke: #fff;
        stroke-width: 4px;
      }
    </style>
  </defs>
  <g id="Layer_1-2" data-name="Layer 1">
    <g>
      <g>
        <path class="cls-5" d="M273.26,248.3c-.33-.18-.57-.37-.68-.46l-.57-.47-.37-.71c-.1-.21-.17-.41-.24-.62l-4-12.65,9.44,9.33,1.57,1.37-.14,.66,5.85,9.3-10.84-5.75Z"/>
        <path class="cls-6" d="M274.52,245.05c.09,.08,.18,.17,.28,.25-.01,.05-.01,.08,0,.1-.06-.03-.14-.1-.21-.15-.03-.07-.05-.14-.08-.2m-14.2-23.12l7.95,25.1c.08,.27,.21,.63,.41,1.06l.66,1.38,1.17,.92c.19,.15,.63,.51,1.24,.83l21.71,11.4-11.71-18.49,.26-1.23-2.9-2.53-.05-.05-18.74-18.39h0Z"/>
      </g>
      <path class="cls-3" d="M382.65,314.67c.68-3.4-.8-7.56-1.52-10.77-2.7-12.08-2.55-24.72,.28-36.77,.36-1.55,.64-3.49-.63-4.45-.7-.53-1.65-.54-2.52-.53-21.94,.21-43.87,.41-65.81,.62-3.25,.03-6.51,.06-9.76-.17-4.39-.31-8.74-1.11-13.08-1.82,1.67,4.62,4.52,8.82,8.2,12.08,1.69,1.5,3.59,2.84,4.83,4.74,1.89,2.88,1.97,6.55,1.98,10,.17,45.35,.34,90.69,.5,136.04,.04,10.87-.4,22.96-8.06,30.67,8.41,1.58,24.53,1.01,24.59,1.81,18.21,.05,36.42,.1,54.63,.15,1.29,0,2.81-.12,3.49-1.22,.35-.57,.37-1.28,.38-1.96,.18-11.99,.37-23.98,.55-35.96-.15,.59-.12-12.26,.08-19.27-5.26,10.95-5,24.13-11.35,34.48-3.6,5.88-9.66,10.66-16.11,13.09-4.57,1.72-9.9,1.96-14.18-.38-3.18-1.74-5.52-4.75-7.08-8.03-4.97-10.39-5.93-22.99-6.05-34.33-.08-7.47,.28-14.94,.31-22.41,.02-3.73-.04-7.46-.28-11.19-.19-2.94-.41-6.11,2.64-7.69,1.36-.71,2.97-.73,4.5-.73,3.06,0,6.12-.02,9.18-.02,1.5,0,3.06,0,4.42,.65,2.56,1.22,3.6,4.26,4.38,6.99,2.19,7.65,4.39,15.3,6.58,22.94,.88-19.53,1.16-39.04,1.37-58.59,.03-3.15,.12-7.41-2.51-9.52-1.99,6.85-1.84,14.45-4.05,21.48-1.16,3.69-2.92,7.66-6.48,9.16-1.93,.81-4.11,.76-6.2,.68-3.49-.12-6.98-.24-10.47-.36-.79-.03-1.67-.09-2.21-.67-.47-.51-.54-1.26-.58-1.95-1.02-17.49-.97-35.04,.14-52.52,.49-7.71,1.84-16.54,8.39-20.64,3.09-1.94,6.86-2.44,10.51-2.59,4.54-.18,9.23,.14,13.29,2.17,6.78,3.39,10.48,10.78,13.14,17.88,1.33,3.56,2.54,7.18,4.11,10.64,1.16,2.57,3.44,8.16,6.23,9.16,.1-.29,.17-.58,.23-.88Zm-86.43-45.26c-1.26-1.16-2.64-2.09-3.43-4.32,1.39,1.49,2.73,3.15,4.02,4.9-.2-.19-.39-.38-.59-.57Zm51.95,178.59c-.06,.05-.13,.09-.19,.15-.11-.01-.22-.03-.34-.04,.18-.04,.36-.08,.53-.11Zm8.47-125.26v.05s0-.07,0-.1c0,.01,0,.03,0,.04Zm.05,5.62c-.14,1.21-.29,2.42-.47,3.62-.03,.03-.06,.07-.08,.12,.16-1.17,.36-2.36,.51-3.55,.02-.07,.02-.12,.04-.19Z"/>
      <g>
        <path class="cls-7" d="M443.15,436.17c.07-.03,.22-.09,.38-.17l7.06-3.56-3.35,7.16c-.65,1.39-1.97,2.12-3.93,2.18l-17.03,.48,16.88-6.09Z"/>
        <path class="cls-5" d="M444.76,438.44c-.24,.51-.91,.59-1.54,.61,.28-.1,.57-.2,.85-.31,.23-.09,.45-.18,.68-.3m11.65-11.96l-14.11,7.08s-.09,.04-.14,.06l-.36,.13-.42,.15-32.24,11.6,34.25-.99c4.03-.12,5.69-2.4,6.33-3.75l6.7-14.28h0Z"/>
      </g>
      <path class="cls-3" d="M490.41,371.8c-.4-.84-2.19-.62-4.09-.5-2.59,.16-5.19,.29-7.78,.39-10.16,.4-20.35,.34-30.51-.17-2.1-.1-10.6-1.4-6.51,2.87,1.82,1.9,4.26,3.35,6.37,4.9,4.16,3.05,8.53,6.3,10.56,11.23,1.38,3.35,1.49,7.07,1.4,10.69-.16,6.87-.97,13.73-2.41,20.45-.81,3.81-1.85,7.63-3.79,11-3.72,6.48-9.86,9.39-17.03,6.72-8.51-3.16-14.62-10.89-18.2-19.24-4.48-10.46-6.96-22.92-8.85-34.09-1.86-11.01-2.59-22.18-2.7-33.34-.22-22.3,2.4-45.78,15.26-64,7.17-10.16,19.96-16.99,30.7-7.26,4.86,4.4,7.77,10.49,10.57,16.41,4.15,8.79,7.57,20.13,13.4,27.83,2.25-2.64,1.21-9.83,1.15-13.34-.1-4.89-.14-9.76-.14-14.65,.18-3.45,.4-6.9,.9-10.32,.5-3.44,2.46-7.74,2.18-10.98-.8-.16-1.18,.21-1.8,.7-2.04,1.64-5.02,1.64-7.49,.76s-4.58-2.53-6.75-4c-10.85-7.34-25.88-12.27-37.87-4.41-1.42,.93-3,.89-4.4,2.1-1.87,1.39-3.9,1.83-5.68,3.57-2.27,2.58-4.16,5.75-6.66,7.8-3.27,3.71-6.11,8.48-8.92,13.24-2.36,4.02-4.13,8.95-6.17,13.47-1.4,2.61-2.28,5.86-3.17,9.05-.66,2.42-1.65,4.52-2.28,6.97-.44,1.77-.49,3.63-.76,5.49-.29,2.17-.87,4.2-1.15,6.38-.29,2.56-.17,5.25-.5,7.85-2.35,19.63-1.4,40.76,3.21,60.01,3.95,16.49,12.27,32.85,27.51,41.47,8.36,4.73,16.62,6.03,26.06,4.25,6.08-1.15,12.01-2.94,17.75-5.24s10.53-5.32,16.62-5.32c-1.04-7.53-.57-14.86-.61-22.44-.02-3.8-.27-8.27,0-11.82-.95-8.57-.61-19.34,5.67-25.99,1.91-2.02,4.49-3.59,6.03-5.93,.86-1.3,1.07-2.09,.85-2.55Zm-35.33,12.15c.28,.28,.57,.57,.87,.83,.13,.1,.28,.02,.38-.15,.61,1,1.13,2.18,1.67,3.32-1.08-1.04-1.94-2.67-2.92-4Zm9.86-86.44c-.75-1.51-1.49-3.19-2.33-4.61,.87,1.37,1.67,2.86,2.33,4.61Zm-6.7-9.93c-.33-.68-.65-1.47-.97-2.25,.02,.02,.65,1.51,.97,2.25Zm-52.48,147.48c-.41-.46-.84-.85-1.26-1.27-3-2.87-5.27-7.56-7.64-11.86,3.02,4.28,5.86,9.03,9.24,12.41-.17,.54,.06,1.06,.27,1.38-.21-.22-.41-.44-.62-.66Zm2.96-43.18c.18,1.2,.38,2.4,.6,3.58,.05,.22,.09,.43,.12,.66-.45-1.21-.53-2.74-.73-4.24Zm.38-3.63c.72,3.65,1.56,7.21,2.44,10.73-.13-.41-2.03-7.84-2.44-10.73Z"/>
      <path class="cls-7" d="M477.34,414.83v.1s0-.06,0-.1h0Z"/>
      <path class="cls-7" d="M399.29,423.58h0s-.01-.01-.02-.03c0,.01,.01,.03,.02,.03Z"/>
      <g>
        <path class="cls-7" d="M587.51,455.54c-9.77,0-14.94-1.5-16.76-4.85-1.15-2.11-.78-4.65,1.09-7.54,4.72-7.33,3.02-17.18,.87-26.63l-4.37-19.23c-.16-.7-.3-1.44-.44-2.18-.89-4.71-1.59-6.8-4.63-7-2.84-.19-5.67-.37-8.51-.55-5.49-.35-11.17-.71-16.75-1.12-.77-.06-1.6-.15-2.46-.26-1.37-.16-2.79-.33-4.1-.33-2.82,0-4.27,.75-4.99,2.59-1.46,3.69-2.35,7.78-3.22,11.74-.2,.9-.39,1.79-.59,2.68l-4.1,18.05c-.96,4.21-1.95,8.57-1.51,12.8,.45,4.34,2.57,7.9,5.82,9.79l.33,.19c.69,.39,1.55,.87,2.23,1.71,.16,.2,.3,.42,.44,.64,.07,.11,.17,.26,.21,.31,.04,.03,.19,.12,.3,.18,.11,.06,.22,.12,.32,.19,1.75,1.08,3.46,3.35,3.08,5.79l-.2,1.27-1.23,.35c-.34,.1-.69,.14-1.05,.14-.42,0-.78-.06-1.08-.12-2.52-.51-5.21-.75-8.48-.75-2.52,0-5.12,.14-7.63,.28-2.57,.14-5.22,.29-7.85,.29-.79,0-1.58-.01-2.36-.04-3.08-.12-6.19-.35-9.25-.71l-.25-.03c-2.06-.23-4.63-.52-5.18-2.62-.51-1.94,1.34-3.26,1.94-3.7,.94-.67,1.86-1.22,2.76-1.75,1.7-1,3.16-1.87,4.33-3.32,2.51-3.11,4.46-5.79,5.82-8.77,1.17-2.54,1.9-5.37,2.62-8.1l9.22-35.28c.13-.5,.33-1.07,.56-1.74,.31-.9,1.02-2.94,.98-3.74-.54-.37-1.95-.93-2.74-1.24-.97-.38-1.8-.72-2.39-1.08-4.17-2.54-7.29-5.78-9.28-9.62-2.86-5.52-3.82-12.4-2.76-19.89,.79-5.6,2.63-10.56,5.47-14.74,.56-.82,1.26-1.77,2.19-2.58,1-.87,7.73-4.43,10.95-4.43,1.85,0,2.56,1.1,2.78,1.57,.91,1.94-.63,4.21-2.43,6.56-.16,.21-.29,.38-.38,.51-1.39,1.91-2.5,4.2-3.24,6.65-.17,.55-.44,.94-.72,1.2-.5,1.6-1,3.35-1.27,5.08-.3,1.85-.42,4.57,.65,7.05,.84,1.93,2.38,3.17,5,4.01l.39,.12c.72,.23,1.47,.47,2.23,.79,.06,.03,.12,.05,.19,.08,1.48-4.67,2.54-9.7,3.57-14.58,.6-2.84,1.22-5.78,1.91-8.58,2.18-8.83,4.32-17.89,6.54-27.69,3.57-15.73,7.16-32.45,11.64-54.21,.1-.48,.15-1.02,.2-1.6,.07-.75,.13-1.53,.32-2.33l.04-.15c.01-.42,.07-.81,.18-1.14,.41-1.33,1.46-1.8,2.3-1.81h.14s.23,.03,.27,.04c.19-.73,.43-1.44,.77-2.1,.05-.16,.08-.37,.13-.59,.2-.97,.55-2.59,1.72-3.23,.36-.48,.84-.83,1.38-1,.44-.47,1.04-.76,1.71-.76,.86,0,1.61,.46,2.06,1.18,.76,.12,1.43,.63,1.79,1.38,.39,.79,.49,1.96-.09,2.92-.19,1.7,1.78,8.45,2.44,10.71,.33,1.14,.57,1.96,.69,2.45,.31,1.31,.64,2.61,.97,3.92l.37,1.48c.47,1.88,.91,3.77,1.36,5.66,.27,1.17,.55,2.34,.83,3.51,2.33,9.66,4.68,19.31,7.04,28.95,1.76,7.07,3.47,14.28,5.13,21.26,1.35,5.68,2.7,11.36,4.09,17.03,4.62,20.8,11.72,41.47,18.58,61.46l.45,1.3c2.41,7.03,5.91,16.06,11.58,23.59,2.7,3.59,5.74,6.63,9.02,9.06,2.61,1.93,4.22,3.74,4.92,5.52,.63,1.63,.48,3.26-.43,4.6-2.16,3.18-7.78,3.87-12.11,3.9-1.6,0-4.13,.2-7.06,.42-4.41,.33-9.9,.75-14.98,.75h0Zm-56.27-87.4c.42,.12,.89,.2,1.38,.29l.65,.12c3.38,.67,7.06,1.03,11.23,1.1,.51,0,1.02,.01,1.53,.01,1.88,0,3.92-.05,6.24-.17,.69-.03,1.42-.05,2.15-.06,1.17-.02,2.36-.04,3.47-.16-.22-1.04-.58-2.16-.93-3.26-.27-.85-.55-1.72-.76-2.56l-1.11-4.34c-3.95-15.42-8.02-31.27-11.18-47.22-.09,.41-.18,.83-.26,1.24-.17,.93-.33,1.87-.48,2.8-.27,1.61-.54,3.27-.91,4.9-.39,1.74-.8,3.47-1.2,5.21-.69,2.95-1.4,6-2.04,9-.86,4.05-2.15,9.51-3.33,14.49l3.16-5.5-6.2,18.75c-.64,1.94-1.1,3.69-1.4,5.34Z"/>
        <path class="cls-5" d="M550.89,246.5c.25,0,.45,.32,.47,.68,.31,2.61,.97,5.09,1.54,7.57,.15,.64,.3,1.26,.46,1.89-.07-.37-.15-.74-.22-1.12-.16-1.8-2.16-7.14-.66-7.86,.02,0,.04,0,.07,0,.44,0,.65,.93,.31,1.36-1.19,1.54,2.44,12.48,2.94,14.58,.43,1.82,.9,3.61,1.35,5.43,.76,3.04,1.45,6.1,2.18,9.15,2.33,9.66,4.68,19.31,7.04,28.96,3.17,12.74,6.09,25.54,9.21,38.29,4.74,21.32,12,42.29,19.08,62.93,2.91,8.48,6.45,16.94,11.88,24.14,2.69,3.57,5.83,6.8,9.43,9.46,2.37,1.75,3.72,3.3,4.24,4.64,1.43,3.68-3.42,5.73-10.69,5.77-4.13,.02-13.63,1.17-22.03,1.17-10.28,0-18.9-1.71-14-9.29,5.24-8.14,3.28-18.74,1.14-28.16-1.46-6.41-2.92-12.82-4.37-19.23-1.03-4.54-1.12-10.35-6.89-10.73-8.41-.55-16.84-1.05-25.25-1.66-2.01-.15-4.43-.59-6.7-.59-2.94,0-5.63,.75-6.85,3.86-1.85,4.68-2.79,9.82-3.9,14.71-1.37,6.02-2.74,12.04-4.1,18.05-1,4.42-2.02,8.94-1.55,13.45,.47,4.61,2.71,8.94,6.81,11.31,.71,.41,1.48,.78,2,1.42,.3,.37,.49,.81,.84,1.14,.28,.26,.64,.43,.96,.63,1.21,.74,2.37,2.33,2.15,3.78-.18,.05-.34,.07-.51,.07-.23,0-.45-.04-.7-.09-2.93-.6-5.89-.79-8.87-.79-5.15,0-10.33,.57-15.48,.57-.76,0-1.53-.01-2.29-.04-3.04-.11-6.08-.35-9.1-.69-1.97-.23-5.63-.53-2.55-2.73,2.63-1.88,5.4-2.86,7.48-5.44,2.31-2.86,4.55-5.84,6.08-9.19,1.23-2.69,1.99-5.56,2.73-8.43l9.22-35.28c.45-1.73,2.26-5.6,1.34-7.06-.71-1.12-4.59-2.19-5.83-2.95-3.6-2.19-6.6-5.06-8.55-8.83-2.94-5.67-3.45-12.36-2.56-18.69,.7-4.97,2.31-9.73,5.14-13.89,.54-.79,1.12-1.57,1.84-2.19,.82-.71,7.12-3.94,9.64-3.94,.49,0,.84,.12,.97,.41,.56,1.19-1.98,4.16-2.63,5.07-1.58,2.17-2.75,4.67-3.53,7.23-.05,.16-.12,.35-.29,.38,0,0-.01,0-.02,0-.06,0-.1-.04-.13-.09,.02-.06,.04-.13,.06-.19,0,0,0,0,0,0-.1,0-.1,.11-.06,.19-.64,2.06-1.28,4.12-1.62,6.25-.43,2.7-.31,5.63,.79,8.16,1.2,2.76,3.44,4.23,6.23,5.12,.82,.27,1.65,.52,2.45,.85,.7,.3,1.42,.94,2.1,1.14,2.89-8.09,4.24-17.24,6.29-25.59,2.27-9.22,4.45-18.46,6.55-27.72,4.1-18.04,7.92-36.13,11.65-54.25,.26-1.25,.21-2.64,.5-3.88,.02-.04,.03-.08,.05-.12,.02-.08,.03-.17,.03-.25,0-.51,.08-1.18,.5-1.19,.55,.08,.55,1.13,.42,2.25,0,.07,.01,.15,0,.21,.42,.36,.43,1.74,.21,3.62,.26-1.09,.52-2.2,.76-3.29,.57-1.95,.74-4.42,1.63-6.05,.3-.79,.43-2.89,1.16-2.89,.06,0,.13,.02,.2,.05,.1-.53,.45-.87,.75-.87,.26,0,.48,.25,.48,.85-.02,.36-.02,.73-.09,1.09,.02,.07,.04,.13,.05,.2,.06-.03,.13-.05,.19-.05s.12,.02,.17,.05c0-.01,0-.03,0-.04-.43-.41-.21-1.33-.27-1.98,0-.4,.2-.77,.48-.78h0m6.96,33.19s0,0,0,0h0s-2.01-10.33-3.62-16.03c.12,.65,.24,1.29,.34,1.94,1.16,4.68,2.31,9.35,3.28,14.09m1.71,6.93c-.17-1.06-.48-2.03-.8-2.99,.25,1.01,.5,2.01,.8,2.99m.59,.91c.08,0,.13-.08,.08-.3-.06,.04-.13,.06-.19,.06-.14,0-.28-.09-.37-.28,.08,.26,.34,.52,.49,.52m.41,6.08s-.02-.48-.25-1.54c-.24-.56-.47-1.13-.68-1.72,.49,2.05,.85,3.27,.93,3.27m-29.85,68.59s.01,0,.02-.02c-.64,1.94-1.19,3.94-1.53,5.96-.23,1.33-.29,1.32,.78,1.71,.06,.02,.12,.04,.19,.07,.85,.31,1.81,.44,2.69,.61,3.81,.76,7.7,1.07,11.59,1.14,.52,0,1.04,.01,1.56,.01,2.11,0,4.23-.07,6.34-.17,2.48-.12,5.33,.03,7.74-.56-.04-2.51-1.34-5.5-1.97-7.97-5.18-20.26-10.53-40.56-14.07-61.18-.32,3.7-1.7,7.34-2.38,11-.47,2.53-.81,5.12-1.38,7.63-1.07,4.73-2.23,9.47-3.24,14.23-2.07,9.71-6.58,27.56-6.34,27.56m-16.86-27.59c.2,0,.27-.15,.46-.21-.06,.02-.13,.04-.2,.06-.13,.04-.27,.07-.38,.13,.05,.01,.09,.02,.12,.02m-5.87,11.28h0s0-.01,0-.01h0m8.11,35.97c.06-.21,.1-.41,.16-.61-2.04-.37-4.09-1.04-6.07-1.99,1.84,1.45,3.84,2.24,5.91,2.61m80.27,36.83c.03-.13,.06-.25,.11-.35-.24-.52-.49-1.03-.73-1.56-.03,.07-.05,.13-.07,.19,.22,.57,.45,1.15,.69,1.72m4.73,8.56c-.16-.41-.32-.81-.46-1.22-1.15-1.97-2.28-3.99-3.35-6.07,.06,.55,.19,1.06,.36,1.55,0,0,0,.01,0,.03,0,.03,.02,.04,.03,.05,.31,.65,.63,1.29,.98,1.91,.63,1.02,1.35,1.95,1.86,2.94,.19,.28,.38,.56,.58,.81m-22.33,5.15s.02-.01,.03-.03c0-.05-.03-.12-.04-.17,0,.05,0,.12,.01,.2m-64.13,4.83s-.03-.94-.13-1.54c.03,.51,.07,1.02,.12,1.53,0,0,0,0,0,0m63.25,.03c.08-.28,.16-.56,.23-.85,0-.11-.02-.21-.03-.32-.02,.04-.04,.07-.05,.11-.04,.36-.09,.71-.15,1.07m-3.81,7.9s.06-.03,.09-.04c-.03,.01-.06,.03-.08,.03h0m-60.54,2.61c.23,0,.46-.02,.69-.04-.15,0-.3-.01-.45-.01-.26,0-.52,.01-.78,.02,.18,.02,.36,.03,.54,.03m-4.64,.93c.02,.05,.04,.1,.07,.1h0s.04,0,.05,0c.01,0-.04-.01-.12-.11-.02-.04-.04-.09-.05-.09,0,0,0,0,0,0,.02,.03,.04,.06,.06,.08m-14.83,.56c.07,0,.13,0,.2,0,.42,0,.83,0,1.25,.02-.43-.06-.85-.11-1.27-.15-.05,.04-.12,.08-.17,.13m13.14,.19c.26-.02,.51-.04,.77-.06,0-.01-.13-.03-.29-.03-.17,0-.36,.02-.48,.09m43.68-206.94h0c-1.06,0-2.04,.38-2.82,1.04-.6,.27-1.14,.66-1.59,1.15-1.7,1.17-2.19,3.46-2.38,4.38-.02,.11-.05,.22-.07,.32-.14,.29-.26,.58-.37,.88-1.46,.38-2.64,1.5-3.13,3.08-.14,.44-.22,.93-.26,1.45-.22,.93-.29,1.81-.36,2.59-.04,.52-.09,1.01-.16,1.37-4.47,21.76-8.06,38.46-11.63,54.17-2.22,9.78-4.36,18.83-6.53,27.65-.7,2.84-1.32,5.8-1.93,8.66-.87,4.13-1.77,8.37-2.91,12.37-.18-.06-.35-.11-.52-.17l-.37-.12c-2.58-.83-3.36-1.94-3.78-2.91-.69-1.59-.87-3.7-.51-5.94,.23-1.45,.65-2.96,1.08-4.38,.38-.47,.67-1.02,.86-1.64,.67-2.24,1.69-4.32,2.93-6.03,.11-.15,.23-.31,.37-.49,1.65-2.16,4.14-5.42,2.65-8.62-.79-1.7-2.51-2.72-4.6-2.72-3.78,0-10.93,3.77-12.26,4.92-1.11,.96-1.9,2.04-2.53,2.97-3.01,4.43-4.96,9.67-5.79,15.58-1.12,7.91-.09,15.2,2.97,21.09,2.16,4.17,5.53,7.67,10.02,10.4,.74,.45,1.64,.81,2.7,1.23,.34,.13,.81,.32,1.25,.51-.19,.68-.47,1.48-.64,1.96-.23,.68-.46,1.31-.61,1.89l-9.22,35.28c-.72,2.77-1.41,5.39-2.5,7.77-1.28,2.79-3.15,5.36-5.56,8.35-.94,1.17-2.2,1.91-3.79,2.86-.93,.55-1.9,1.12-2.9,1.84-2.95,2.11-3.1,4.33-2.71,5.83,.89,3.43,4.65,3.85,6.89,4.1l.25,.03c3.11,.36,6.27,.6,9.41,.72,.77,.03,1.6,.04,2.44,.04,2.68,0,5.37-.15,7.96-.29,2.6-.14,5.06-.28,7.52-.28,3.14,0,5.7,.23,8.06,.71,.44,.09,.93,.17,1.5,.17,.54,0,1.08-.07,1.59-.22l2.47-.7,.4-2.54c.52-3.34-1.71-6.39-4-7.8-.09-.06-.18-.11-.28-.16-.13-.2-.29-.44-.5-.71-.92-1.14-2.01-1.76-2.81-2.2l-.3-.17c-2.69-1.56-4.46-4.57-4.84-8.26-.4-3.9,.55-8.1,1.47-12.15l1.69-7.43,2.41-10.62c.2-.89,.4-1.79,.6-2.7,.85-3.88,1.73-7.89,3.13-11.43,.25-.62,.52-1.33,3.13-1.33,1.2,0,2.55,.16,3.86,.32,.84,.1,1.72,.2,2.55,.27,5.62,.41,11.34,.77,16.86,1.12,2.8,.18,5.61,.36,8.41,.54,1.34,.09,1.85,.37,2.79,5.37,.14,.74,.28,1.5,.45,2.25l.39,1.69,3.99,17.54c2.05,9.04,3.7,18.42-.6,25.11-2.86,4.41-2.21,7.64-1.16,9.57,2.22,4.07,7.93,5.89,18.52,5.89,5.16,0,10.69-.42,15.13-.75,2.89-.22,5.39-.41,6.92-.41,4.81-.03,11.11-.87,13.75-4.77,1.29-1.9,1.52-4.19,.64-6.45-.84-2.15-2.67-4.25-5.59-6.41-3.13-2.31-6.03-5.22-8.61-8.66-5.51-7.31-8.93-16.15-11.29-23.03l-.45-1.3c-6.85-19.93-13.93-40.55-18.51-61.2v-.04s-.02-.04-.02-.04c-1.38-5.66-2.75-11.43-4.08-17.01-1.66-6.98-3.37-14.21-5.14-21.3-2.5-10.25-4.76-19.52-7.03-28.93-.28-1.17-.56-2.35-.83-3.52-.43-1.85-.88-3.77-1.36-5.67l-.38-1.51c-.33-1.28-.65-2.57-.95-3.86-.13-.55-.38-1.39-.72-2.55-.57-1.96-2.24-7.69-2.35-9.69,.56-1.33,.54-2.92-.11-4.25-.52-1.05-1.38-1.84-2.4-2.24-.81-.9-1.96-1.44-3.23-1.44h0Zm-10.21,94.29c.1-.45,.19-.89,.28-1.32,.63-2.98,1.34-6.02,2.03-8.96,.34-1.45,.68-2.91,1.01-4.36,.47,2.12,.94,4.24,1.43,6.35l-4.75,8.28h0Zm-7.07,29.79c.24-.99,.55-2.04,.92-3.15l11.16-33.78c2.35,10.1,4.92,20.11,7.44,29.95l1.12,4.36c.23,.89,.52,1.79,.8,2.67,.08,.26,.17,.52,.25,.79-.31,0-.61,.01-.92,.02-.73,.01-1.48,.03-2.22,.06-2.28,.11-4.29,.17-6.14,.17-.5,0-1,0-1.5-.01-4.06-.07-7.61-.41-10.88-1.06-.01,0-.02,0-.03,0h0Z"/>
      </g>
      <g>
        <polygon class="cls-7" points="246.52 231.98 246.49 228.66 246.49 225.38 256.36 225.38 253.87 228.7 256.28 231.98 246.52 231.98"/>
        <path class="cls-5" d="M249.77,228.66s.01,0,.03,0c0,0-.01,.02,0,.04-.01,0-.03-.02-.03-.04m-6.45-6.61l-.11,6.52-.03,2.73,1.92,1.98,1.91,1.95,2.74,.03,13.05,.1-4.84-6.61,4.93-6.54-13.04-.1-6.52-.05h0Z"/>
      </g>
      <g>
        <path class="cls-7" d="M261.58,240.87c-.49-.15-.94-.32-1.39-.53l-.24-.11-.29-.2-.11-.08-25.46-17.37,28.6,11.65c.42,.17,.83,.34,1.23,.54l-2.35,6.1Z"/>
        <path class="cls-5" d="M261.46,237.27c.36,.15,.71,.3,1.06,.46-.31-.09-.61-.2-.92-.35-.05-.04-.09-.07-.15-.11m-54.11-29.16l50.27,34.48c.09,.07,.18,.13,.27,.2l.42,.29,.46,.22c.6,.29,1.21,.52,1.86,.72l4.7-12.2c-.53-.25-1.03-.46-1.4-.61l-56.58-23.09h0Z"/>
      </g>
      <g>
        <path class="cls-7" d="M120.53,231.79c-.08,0-.2,0-.35-.01h-1.52s-1-1.31-1-1.31l1.57-1.19,1.95-4.03c.1,.04,.2,.08,.31,.11l22.02,6.56-22.98-.14Z"/>
        <path class="cls-5" d="M119.98,228.31c.19,.07,.38,.15,.57,.2-.08,0-.16,0-.24-.02,0,0,0,0-.01,0,0,0,0,0-.01,0-.09-.07-.2-.13-.3-.18m2.4-6.1l-3.6,7.39-3.79,2.79,1.97,2.67h3.12c.16,.02,.3,.02,.42,.02l46.38,.32-44.38-13.14-.11-.04h0Z"/>
      </g>
      <g>
        <polygon points="65.65 463.71 71.13 457.4 72.84 455.28 74.56 452.92 75.83 450.85 77.2 448.89 78.48 446.66 79.7 444.84 80.55 442.98 81.22 441.09 82.05 439.59 82.25 439.15 81.92 439.29 80.26 439.94 77.26 440.79 75.89 441.16 74.39 441.58 72.79 441.74 71.64 442.01 70.02 442.29 68.17 442.26 65.96 442.4 63.77 442.56 61.16 442.72 58.57 442.56 56.25 442.03 54.17 441.69 51.73 440.89 49.46 440.47 47.49 439.68 45.14 438.78 42.67 437.62 40.81 436.57 38.67 435.21 37.14 433.68 35.72 432.02 34.03 430.49 32.56 428.79 31.22 426.74 30.41 424.88 29.78 422.88 29.29 420.17 29.34 417.98 29.18 416.18 29.28 411.83 30.04 409.89 30.63 408.42 31.45 406.33 32.16 404.91 32.87 403.37 33.57 401.58 34.52 399.75 35.62 397.97 36.86 396.62 38.04 395.28 38.9 394.34 40.09 392.93 41.67 391.5 43.24 389.75 45.08 388.18 46.84 386.74 48.36 385.55 50.3 383.83 52.18 382.56 53.48 381.59 55.1 380.14 57.79 378.1 59.18 376.69 61.05 375.29 62.52 374.02 64.78 372.18 66.51 370.7 68.4 368.98 70.08 367.41 72.4 365.33 74.48 363.58 76.59 361.44 79.01 358.81 81.1 356.31 83.43 353.64 85.73 350.88 88.04 348.4 88.45 348.01 88.57 347.88 88.94 347.36 89.63 346.56 89.89 346.22 90.26 345.65 92.9 341.11 95.68 345.32 95.96 345.87 96.26 346.36 96.53 346.77 96.79 347.11 97.24 347.65 97.57 348.14 98.28 349.13 98.57 349.55 98.79 349.86 99.31 350.54 99.55 350.9 99.81 351.25 99.94 351.46 100.16 351.71 100.41 352.02 100.6 352.24 100.95 352.6 107.07 360.33 114.18 367.55 121.61 374.59 128.63 380.95 132.98 383.75 135.85 386.3 138.81 389.15 141.78 392.23 144.15 395.18 146.35 398.46 147.76 400.74 149.11 403.98 150.68 407.63 151.35 409.43 151.59 410.98 151.82 412.37 151.67 418.91 151.44 419.82 151.37 420.44 151.09 422.33 150.47 423.95 150.19 425.19 149.48 426.83 148.72 428.32 147.72 429.8 146.34 431.28 145.54 432.35 144.12 433.53 142.96 434.29 141.74 435.46 139.98 436.55 138.41 437.19 136.42 438.17 134.33 439.21 133.12 439.62 131.38 440.32 129.43 440.73 127.84 441.12 126.66 441.45 125.98 441.69 124.94 442.03 123.84 442.25 122.43 442.46 121.75 442.44 121.16 442.68 116.51 442.6 115.5 442.4 114.63 442.39 112.82 442.27 111.33 442.02 110.16 441.92 108.63 441.65 106.94 441.27 105.34 440.93 103.92 440.49 102.13 439.97 100.55 439.35 99.55 438.96 99.65 439.32 99.95 440.6 100.55 442.61 101.01 443.7 101.22 444.59 101.84 445.76 102.14 446.63 102.69 447.37 103.39 448.43 104.29 450.21 105.41 451.81 106.59 453.45 107.58 454.89 108.82 456.06 110.06 457.23 111.21 458.37 118.73 464.57 65.65 463.71"/>
        <path class="cls-4" d="M93.05,346.29l.26,.4,.27,.52,.36,.59,.36,.56,.35,.45,.4,.49,.27,.39,.38,.54,.36,.51,.23,.34,.27,.37,.23,.31,.29,.38,.23,.34,.23,.31,.19,.31,.29,.33,.29,.36,.27,.31,.3,.31,6.13,7.74,7.22,7.32,7.49,7.11,7.23,6.56,4.37,2.8,2.63,2.34,2.89,2.78,2.88,2.99,2.22,2.77,2.08,3.09,1.29,2.1,1.27,3.04,1.53,3.56,.57,1.54,.19,1.27,.2,1.18-.03,1.33-.03,1.51-.03,1.39-.04,1.75-.2,.78-.09,.81-.22,1.5-.59,1.53-.26,1.18-.58,1.33-.64,1.27-.78,1.16-1.33,1.43-.71,.93-1.05,.87-1.25,.81-1.19,1.15-1.32,.81-1.45,.59-2.08,1.02-1.94,.97-1.1,.37-1.59,.64-1.72,.36-1.72,.42-1.31,.37-.76,.27-.83,.26-.89,.18-1.11,.16-.99-.02-.6,.23h-.47s-1.33-.03-1.33-.03l-1.09-.02-.99-.02-1.01-.2-1.04-.02-1.62-.11-1.46-.24-1.15-.1-1.36-.23-1.62-.37-1.51-.32-1.3-.4-1.72-.5-1.45-.58-1.14-.44-1.35-.58-1.19-.53-.93-.36-.46-.52-.08,1.4,.03,1.15,.04,1.16,.3,1.01,.24,.91,.3,1.28,.3,1.01,.36,1.23,.43,1.02,.24,1.01,.69,1.28,.37,1.07,.76,1.02,.57,.86,.91,1.82,1.24,1.77,1.2,1.67,1.12,1.63,1.46,1.37,1.21,1.16,1.21,1.2,1.58,1.3-2.11-.03-37.3-.6,1.64-1.89,1.81-2.25,1.82-2.5,1.29-2.09,1.39-2,1.3-2.26,1.29-1.92,.99-2.17,.64-1.8,.76-1.38,.54-1.14,.71-1.27,.28-1.11,.33-1.28v-1.22s-.05-.45-.05-.45l-1.34,.57-1.3,.6-1.3,.6-1.51,.64-1.47,.57-1.51,.43-1.38,.4-1.33,.36-1.29,.36-1.54,.15-1.25,.29-1.29,.22-1.71-.03-2.32,.15-2.2,.15-2.43,.15-2.19-.13-2.18-.51-1.96-.31-2.41-.79-2.19-.41-1.72-.69-2.29-.88-2.29-1.07-1.71-.97-1.82-1.16-1.24-1.24-1.46-1.72-1.7-1.53-1.24-1.43-1.12-1.71-.66-1.51-.54-1.7-.41-2.26,.05-2.07-.16-1.79,.05-2.19,.03-1.53,.58-1.49,.58-1.45,.79-1.99,.66-1.33,.78-1.67,.68-1.74,.83-1.61,.91-1.48,1.06-1.15,1.23-1.41,.82-.89,1.15-1.34,1.55-1.4,1.55-1.72,1.71-1.46,1.7-1.4,1.54-1.21,1.87-1.65,1.78-1.2,1.46-1.08,1.63-1.46,2.76-2.09,1.39-1.4,1.78-1.33,1.54-1.34,2.19-1.78,1.79-1.53,1.95-1.78,1.71-1.59,2.28-2.04,2.11-1.78,2.2-2.23,2.53-2.74,2.13-2.56,2.29-2.62,2.29-2.75,2.2-2.36,.44-.42,.29-.33,.37-.51,.31-.35,.37-.43,.37-.49,.46-.7,.46-.79m-.28-10.37l-4.44,7.62-.4,.68-.28,.43-.14,.19-.26,.3-.3,.34-.16,.19-.14,.2-.2,.28-.23,.22-.12,.11-.11,.12-2.2,2.36-.1,.11-.1,.12-2.25,2.7-2.25,2.57-.04,.05-.04,.05-2.04,2.45-2.38,2.58-1.96,1.99-1.92,1.62-.06,.05-.06,.05-2.28,2.04-.04,.04-.04,.04-1.69,1.57-1.87,1.7-1.67,1.42-2.14,1.74-.07,.05-.06,.06-1.4,1.21-1.63,1.21-.33,.25-.29,.29-1.11,1.13-2.45,1.86-.18,.14-.17,.15-1.43,1.29-1.15,.85-1.68,1.14-.3,.2-.27,.24-1.75,1.55-1.41,1.1-.05,.04-.05,.04-1.7,1.4-.05,.04-.05,.04-1.71,1.46-.27,.23-.24,.26-1.37,1.52-1.34,1.21-.26,.24-.23,.27-1.09,1.27-.75,.83-.04,.05-.04,.05-1.18,1.35-1.01,1.09-.36,.39-.28,.45-.91,1.48-.11,.17-.09,.18-.83,1.61-.14,.26-.11,.27-.61,1.57-.68,1.45-.63,1.27-.1,.2-.08,.21-.79,1.99-.57,1.44-.6,1.52-.35,.9-.02,.97-.03,1.53-.05,2.19v.3s.02,.3,.02,.3l.13,1.49-.04,1.77v.55s.09,.55,.09,.55l.41,2.26,.06,.34,.11,.33,.54,1.7,.09,.27,.11,.26,.66,1.51,.18,.42,.25,.39,1.12,1.71,.2,.31,.24,.28,1.24,1.43,.22,.26,.25,.23,1.43,1.29,1.23,1.44,.14,.17,.15,.15,1.24,1.24,.43,.43,.51,.32,1.82,1.16,.12,.08,.12,.07,1.71,.97,.18,.1,.19,.09,2.29,1.07,.17,.08,.18,.07,2.26,.87,1.69,.67,.49,.2,.52,.1,1.83,.34,2.07,.68,.41,.14,.43,.07,1.77,.28,2,.46,.45,.1,.46,.03,2.19,.13,.33,.02,.33-.02,2.43-.15,2.24-.16,2.07-.14,1.49,.02h.51s.51-.08,.51-.08l1.29-.22,.16-.03,.16-.04,.89-.21,1.18-.11,.48-.05,.47-.13,1.29-.36,.57-.15-.95,1.42-.11,.16-.09,.17-1.18,2.05-1.26,1.81-.08,.12-.08,.13-1.18,1.91-1.62,2.22-1.67,2.06-1.57,1.81-7.69,8.86,11.73,.19,37.3,.6,2.11,.03,15.62,.25-12.06-9.93-1.39-1.15-1.04-1.02-.03-.03-.03-.03-1.21-1.16-.02-.02-.02-.02-1.03-.96-.79-1.14-.04-.05-.04-.05-1.18-1.64-.99-1.41-.73-1.46-.15-.29-.18-.27-.57-.86-.08-.13-.09-.12-.25-.34-.09-.26-.14-.42-.21-.39-.35-.65-.07-.31v-.02s.69,.21,.69,.21l.24,.07,.24,.05,1.48,.31,1.58,.36,.14,.03,.14,.02,1.36,.23,.22,.04,.22,.02,.96,.09,1.27,.21,.25,.04,.25,.02,1.62,.11h.14s.14,.01,.14,.01h.55s.53,.11,.53,.11l.48,.09h.48s.99,.02,.99,.02l1.09,.02,1.33,.02h.47s1.07,.02,1.07,.02l.6-.23h.36s.44-.06,.44-.06l1.11-.16,.15-.02,.14-.03,.89-.18,.3-.06,.29-.09,.83-.26,.07-.02,.07-.02,.6-.21,1.05-.3,1.54-.37,1.64-.34,.47-.1,.45-.18,1.44-.58,.95-.32,.36-.12,.34-.17,1.94-.97,1.87-.92,1.27-.51,.42-.17,.39-.24,1.32-.81,.5-.31,.43-.41,.81-.79,.81-.53,.27-.18,.25-.21,1.05-.87,.48-.4,.38-.5,.53-.7,1.14-1.21,.3-.32,.24-.36,.78-1.16,.19-.28,.15-.3,.64-1.27,.07-.14,.06-.15,.58-1.33,.21-.49,.11-.52,.17-.77,.44-1.14,.22-.57,.09-.61,.22-1.5v-.09s.02-.09,.02-.09l.05-.43,.11-.41,.16-.62v-.64s.05-1.75,.05-1.75l.03-1.39,.03-1.51,.03-1.32v-.51s-.07-.51-.07-.51l-.19-1.14-.19-1.23-.08-.56-.2-.53-.57-1.54-.05-.13-.05-.12-1.52-3.53-1.26-3.01-.17-.4-.23-.37-1.29-2.1-.06-.09-.06-.09-2.08-3.09-.13-.19-.14-.18-2.22-2.77-.15-.19-.17-.18-2.88-2.99-.07-.08-.08-.07-2.89-2.78-.08-.07-.08-.07-2.63-2.34-.32-.28-.36-.23-3.98-2.55-6.85-6.21-7.38-7-6.94-7.05-5.95-7.51-.17-.21-.19-.19-.2-.21-.11-.12-.22-.28-.08-.1-.06-.07-.07-.11-.14-.19-.15-.2-.16-.23-.1-.15-.11-.14-.26-.34-.17-.23-.19-.27-.18-.27-.05-.08-.05-.07-.36-.51-.34-.47-.24-.35-.14-.2-.16-.19-.34-.41-.16-.21-.22-.34-.21-.34-.16-.32-.14-.27-.17-.25-.26-.4-4.85-7.37h0Z"/>
      </g>
      <path class="cls-2" d="M220.21,130.95c-9.11,1.13-18.22,2.27-27.33,3.4l.83,3.06c3.47-1.59,7.18-3.36,9.19-6.78,.68-1.16-.22-2.34-1.42-2.47-3.39-.36-6.84,.06-10.03,1.24-1.97,.73-1.22,3.58,.87,3.16,7.86-1.59,16.01-1.58,23.86,0v-3.16c-3.65,.65-7.21,1.87-10.45,3.66s-6.15,4.29-8.83,6.91-5.12,5.22-7.92,7.58-5.65,4.56-6.78,8.02c-1.03,3.15-.02,6.46,2.76,8.3s6.63,1.95,9.92,2.12c8.7,.46,17.41,.73,26.12,.79,9.79,.07,19.58-.11,29.37-.55,1.32-.06,1.94-1.33,1.42-2.47-2.2-4.77-3.8-9.78-4.82-14.93-.3-1.55-2.88-1.58-3.16,0-1.29,7.24-.74,14.62,1.7,21.57,.69,1.98,3.86,1.13,3.16-.87-2.24-6.37-2.89-13.16-1.7-19.82h-3.16c1.07,5.44,2.83,10.68,5.15,15.71l1.42-2.47c-16.08,.71-32.2,.75-48.28,.09-3.69-.15-7.46-.15-11.12-.63-2.51-.33-5.92-1.23-5.91-4.34s2.92-5.43,5.11-7.26c2.59-2.18,5.02-4.49,7.41-6.89,2.7-2.71,5.45-5.4,8.72-7.4s6.95-3.28,10.75-3.96c1.58-.28,1.55-2.85,0-3.16-8.46-1.71-17.14-1.72-25.6,0l.87,3.16c2.96-1.1,6.02-1.46,9.16-1.13l-1.42-2.47c-1.69,2.88-5.11,4.28-8.01,5.6-1.43,.66-.77,3.25,.83,3.06,9.11-1.13,18.22-2.27,27.33-3.4,.89-.11,1.63-.67,1.64-1.64,0-.8-.76-1.75-1.64-1.64h0Z"/>
      <path class="cls-1" d="M519.87,78.52c.67-3.1-.1-7.35-.2-10.5-.11-3.78-.26-7.55-.42-11.33-.52-11.83-.97-23.67-1.45-35.51-.03-.77-.07-1.56-.4-2.25-.5-1.04-1.59-1.7-2.72-1.94-3.53-.75-7.94,.25-11.49,.54-4.07,.33-8.14,.62-12.23,.68-8.58,.11-17.17-.23-25.74,.33-1.85,.12-3.69,.3-5.55,.32-1.89,.02-3.77-.11-5.65-.2-6.3-.3-12.63-.08-18.9,.63-1.58,.18-4.49-.68-5,1.55-.19,.82,.04,1.66,.15,2.49,.15,1.07,.11,2.15,.08,3.23,0,10.09-.7,20.1-.41,30.19,.15,5.45,.44,10.89,.86,16.33,.03,.42,.45,6.25,1.3,4.27,.18-.42,0-.89-.12-1.33-.32-1.23-.05-2.53,.23-3.77,1.69-7.36,4.04-14.56,7.02-21.5,1.25-2.92,2.62-5.8,4.32-8.49,1.33-2.12,3.15-5.43,5.61-6.35,.93-.34,1.94-.34,2.93-.34,2.44,.01,4.89,.02,7.33,.03,1.35,0,2.77,.03,3.95,.69,2.06,1.15,1.44,3.31,1.5,5.26,1.41,46.63-.04,93.36-.25,140.01-.06,14.57-1.26,28.84-11.9,39.87-3.72,3.86,2,4.98,5.06,5.07,4.17,.12,8.34,.25,12.51,.37,5.66,.17,11.34,.34,17,.05,3.01-.16,6.01-.43,8.98-.92s3.61-1.57,2.58-4.73c-.22-.67-.69-1.21-1.13-1.75-8.89-10.64-12.05-22.84-12.32-36.51-.63-31.32,.91-62.85-.8-94.13,.14,2.22,.28,4.43,.42,6.65,.19-17.28,.83-34.63,.32-51.91-.12-4.24,.06-6.77,4.92-6.61,2.53,.08,5.05,.17,7.58,.25,1.6,.05,3.25,.12,4.69,.8,1.88,.88,3.14,2.68,4.13,4.51,1.63,3.03,3.47,5.92,4.95,9.02,1.95,4.1,2.76,8.63,3.94,13,1.19,4.38,1.9,10.44,4.22,14.31,.03-.13,.07-.26,.1-.4Zm-2.64-46.43c.05,1.24,.1,2.48,.14,3.73-.06,.01-.12,.04-.17,.11,0-1.29,.02-2.56,.03-3.84Zm-32.92,90.37v-.97c0-.39,0-.76,0-1.14,0,.13,.02,.26,.02,.39,.02,.09,.03,.16,.05,.23-.03,.5-.06,1-.08,1.5Zm-18.97-41.1c-.02-3.17,.05-6.33,.14-9.47,.1,5-.3,14.18-.14,9.47Z"/>
      <path class="cls-1" d="M517.9,24.05s-.05,.01-.08,.04c0-.07,0-.13,0-.2,.02,.04,.05,.1,.08,.16Z"/>
      <path class="cls-1" d="M467.28,133.04c0-.06,0-.1,0-.16t0,0v.16Z"/>
      <path class="cls-1" d="M467.14,124.31h0s0-.01,0,0h0Z"/>
      <path class="cls-1" d="M453.17,222.94c-.02,.07-.05,.14-.06,.2h-.14c.07-.06,.14-.13,.2-.2Z"/>
      <g>
        <path class="cls-2" d="M237.15,269.98c-5.29,0-6.76-2.52-7.17-4.03-.83-3.06,1.53-5.34,2.95-6.69l.32-.31c4.54-4.41,4.58-12.06,4.12-18.24-1.19-15.75-4.73-31.44-7.95-44.91-.63-2.62-1.31-5.29-1.98-7.86-.55-2.12-1.09-4.24-1.62-6.37-.22-.9-.42-1.81-.63-2.72-.79-3.51-1.53-6.82-3.25-9.64-.82-1.35-1.69-2.21-2.58-2.58-.46-.19-.99-.27-1.62-.27-1.05,0-2.21,.24-3.44,.49l-.34,.07c-3.75,.76-7.6,1.21-11.42,1.36-.43,.02-.86,.03-1.29,.04-3,.09-5.83,.18-8.1,1.38-6.06,3.21-7.5,13.42-8.56,20.88-.1,.69-.19,1.35-.29,1.98-.57,3.83-.99,7.78-1.39,11.6-.61,5.72-1.23,11.63-2.38,17.43-.49,2.45-1.07,4.91-1.64,7.28-1.3,5.46-2.53,10.62-2.72,15.93-.24,6.84,2.2,10.87,5.29,15.97,.81,1.33,1.64,2.71,2.48,4.22l1.54,2.77-3.05,.85c-2.41,.67-5.17,1-8.42,1s-6.35-.3-9.45-.58c-2.52-.23-4.9-.45-7.13-.51-.74-.02-1.48-.02-2.24-.02-1.7,0-3.44,.04-5.19,.07-1.83,.04-3.67,.08-5.5,.08-3.31,0-7.64-.11-11.75-.94l-3.93-.79,2.44-3.18c2.27-2.95,4.97-5.67,7.59-8.31,1.88-1.89,3.82-3.84,5.52-5.81,2.88-3.33,4.11-8.08,5.31-12.68,.25-.95,.49-1.89,.75-2.8,5.44-19.56,9.81-39.88,14.02-59.53,2.27-10.57,4.61-21.5,7.1-32.18l.25-1.07c6.91-29.68,14.05-60.37,20.23-90.23,1.27-6.14,1.26-12.13-.02-16.88-.6-2.22-1.53-4.35-2.51-6.61l-.45-1.05c-.54-1.27-1.17-2.74-1.69-4.25-.04-.1-.1-.34-.18-.66-.08-.31-.32-1.27-.46-1.55,.11,.23,.66,.91,1.66,1.02l.56-4.97c1.71,.19,3.56,.29,5.68,.29,2.78,0,5.66-.16,8.45-.32,2.17-.12,4.42-.25,6.59-.3,1.27-.03,2.56-.1,3.93-.18,1.77-.1,3.6-.21,5.42-.21,1.37,0,2.59,.06,3.72,.19,1.75,.19,4.24,.68,5.51,2.68,1.37,2.15,.54,4.61-.27,6.99-.39,1.14-.78,2.31-1,3.52-1.2,6.68-.48,13.68,.29,19.71,4,31.23,12.46,62.57,20.64,92.87,1.8,6.68,3.67,13.59,5.45,20.37,1.42,5.39,2.79,10.9,4.12,16.22,7.45,29.81,15.16,60.64,33.58,86.18l2.96,4.06-4.58,.26c-17.18,.98-34.62,1.47-51.83,1.47h-.41Zm-37.64-142.94c.48,.05,.96,.08,1.48,.08,2.43,0,4.91-.6,7.52-1.24l.21-.05c1.49-.36,3.01-.72,4.56-.98-.08-.35-.16-.7-.24-1.05l-.07-.33c-2.13-10.46-4.3-21.17-5.8-32.09-.26,1.07-.51,2.09-.74,3.05-2.42,10.29-4.97,21.24-7.27,32.19,.13,.12,.25,.26,.35,.41Z"/>
        <path class="cls-4" d="M218.97,17.95c1.17,0,2.32,.05,3.45,.17,6.9,.76,3.03,4.86,2.05,10.26-1.22,6.74-.6,13.67,.27,20.47,4.91,38.35,16.34,76.23,26.15,113.56,9.36,35.63,16.07,72.7,38.09,103.23,.09,.12,.18,.24,.27,.37-17.22,.98-34.46,1.47-51.7,1.47-.13,0-.27,0-.4,0-1.88,0-4.27-.36-4.76-2.18-.48-1.78,1.28-3.27,2.6-4.55,5.14-5,5.41-13.07,4.87-20.22-1.16-15.31-4.44-30.37-8.01-45.3-1.14-4.77-2.43-9.49-3.6-14.25-1.09-4.43-1.76-9.09-4.17-13.06-.92-1.51-2.14-2.93-3.78-3.6-.82-.33-1.69-.46-2.57-.46-1.42,0-2.88,.32-4.28,.6-3.63,.73-7.32,1.17-11.03,1.32-3.57,.14-7.32,.04-10.47,1.71-7.81,4.14-8.98,16.82-10.15,24.71-1.42,9.61-1.86,19.36-3.75,28.91-1.56,7.86-4.13,15.6-4.41,23.61-.33,9.46,3.98,14.11,8.08,21.49-2.42,.67-5.05,.9-7.75,.9-5.54,0-11.41-.97-16.52-1.09-.76-.02-1.52-.03-2.3-.03-3.46,0-7.1,.15-10.7,.15-3.88,0-7.71-.17-11.26-.89,3.79-4.93,8.89-9.24,13.01-14,3.89-4.5,5.02-10.9,6.57-16.45,8.4-30.18,14.05-61.3,21.15-91.81,7.06-30.34,14.24-61.11,20.49-91.36,1.2-5.78,1.49-12.31-.05-18.04-.75-2.77-1.95-5.37-3.08-8-.58-1.34-1.15-2.7-1.62-4.08-.11-.33-.62-2.81-1.07-2.86,1.95,.22,3.95,.3,5.96,.3,5.04,0,10.2-.51,15.1-.62,3-.07,6.2-.39,9.29-.39m6.68,44.59c-.65-2.85-1.3-5.7-1.87-8.58-.01-.05-.03-.12-.05-.17,.02,.31,.04,.61,.06,.9,.53,2.49,1.02,5,1.56,7.5,.11,.1,.21,.22,.3,.36m-28.74,65.79c.06-.03,.12-.05,.19-.05,.18,0,.36,.13,.47,.37,.08,.19,.12,.39,.12,.61,1.1,.25,2.2,.36,3.3,.36,2.73,0,5.42-.65,8.11-1.31,2.4-.58,4.81-1.17,7.23-1.27-.28-1.27-.56-2.54-.85-3.8-3.15-15.52-6.37-31.29-7.4-47.56-1.2,6.14-2.6,12.16-4.07,18.16-2.66,11.3-5.29,22.62-7.67,34.09,.19,.15,.4,.29,.58,.39m36.1-32.07c.67,4.22,1.39,8.41,2.15,12.59,0,.03,0,.04,0,.04,0-.01,0-.03,0-.04-.11-.6-1.24-7.13-2.15-12.59-.39-2.46-.77-4.94-1.13-7.41-.02-.07-.03-.11-.04-.11-.07,0,.49,3.47,1.17,7.52m13.75,55.74c.14-.16,.26-.23,.37-.23,.19,0,.34,.2,.47,.47-.5-2.15-.97-4.31-1.45-6.46-1.79-6.6-3.59-13.19-5.12-19.96,1.91,8.73,4.06,17.33,5.73,26.19m-49.6-20.78c.11,0,.21-.01,.29-.03-.53-.17-1.12-.27-1.69-.53-.05,.24,.8,.56,1.39,.56m14.1,.38s0,0,0,0c0,0,0,0,0,0,0-.02,3.88-.43,5.41-.43-1.53,0-5.4,.41-5.41,.43m-21.52,32.86c2.19-.14,4.38-.47,6.53-1.31-.34-.06-.73-.08-1.15-.08-2.22,0-5.25,.72-5.37,1.39m-4.14,7.02s.09-.03,.13-.03,.08,0,.12,.03c.44-1.39,.91-2.75,1.38-4.1-.32,.05-.65,.07-.97,.1h-.01c0,.05-.01,.1-.02,.14-.17,.9-.35,1.8-.53,2.7v.07s-.01,.05-.01,.07c0,.34-.04,.7-.09,1.03m-10.4,55.32c.93-4.8,1.7-9.65,2.23-14.6-.9,4.77-1.63,9.79-2.23,14.6M218.97,12.95c-1.89,0-3.76,.11-5.57,.21-1.35,.08-2.62,.15-3.84,.18-2.22,.05-4.49,.18-6.68,.3-2.76,.16-5.61,.32-8.31,.32-2.02,0-3.79-.09-5.4-.27l-1.12,9.94c-2.04-.23-3.34-1.67-3.67-2.52,.09,.24,.27,.92,.33,1.18,.09,.34,.15,.59,.24,.86,.55,1.6,1.2,3.12,1.76,4.42l.46,1.05c.94,2.17,1.83,4.22,2.39,6.27,1.18,4.38,1.18,9.97-.01,15.73-6.17,29.82-13.31,60.48-20.21,90.14l-.26,1.1c-2.49,10.7-4.84,21.64-7.11,32.22-4.21,19.61-8.56,39.9-13.99,59.39-.26,.93-.51,1.88-.76,2.85-1.12,4.32-2.28,8.79-4.78,11.67-1.65,1.9-3.47,3.74-5.4,5.68-2.67,2.69-5.43,5.47-7.8,8.55l-4.89,6.36,7.86,1.59c4.33,.87,8.82,.99,12.25,.99,1.87,0,3.74-.04,5.56-.08,1.79-.04,3.48-.07,5.14-.07,.73,0,1.46,0,2.18,.02,2.14,.05,4.48,.27,6.96,.5,3.15,.29,6.42,.59,9.68,.59,3.49,0,6.46-.36,9.09-1.09l6.11-1.7-3.07-5.54c-.86-1.55-1.71-2.95-2.52-4.3-3.1-5.11-5.14-8.49-4.93-14.59,.18-5.06,1.38-10.1,2.65-15.44,.57-2.4,1.16-4.88,1.66-7.37,1.17-5.91,1.8-11.88,2.42-17.65,.4-3.79,.82-7.71,1.38-11.5,.09-.64,.19-1.31,.29-2.01,.92-6.53,2.32-16.4,7.25-19.01,1.76-.93,4.31-1.01,7.01-1.09,.44-.01,.88-.03,1.31-.04,3.96-.15,7.94-.63,11.82-1.41l.34-.07c1.1-.22,2.14-.44,2.95-.44,.3,0,.54,.03,.68,.09,.1,.04,.62,.3,1.39,1.56,1.5,2.47,2.2,5.59,2.94,8.89,.21,.93,.42,1.85,.64,2.77,.53,2.14,1.08,4.3,1.62,6.39,.66,2.57,1.35,5.22,1.97,7.82,3.2,13.37,6.71,28.95,7.89,44.51,.43,5.63,.43,12.57-3.37,16.26l-.31,.3c-1.58,1.51-4.85,4.65-3.63,9.15,.48,1.76,2.37,5.87,9.58,5.87h.4c17.26,0,34.75-.5,51.98-1.48l9.15-.52-5.38-7.41-.25-.35c-18.14-25.15-25.79-55.74-33.18-85.33-1.33-5.33-2.71-10.85-4.13-16.25-1.78-6.78-3.65-13.7-5.45-20.39-8.16-30.22-16.59-61.48-20.57-92.54-.75-5.84-1.45-12.61-.31-18.95,.18-1.03,.55-2.11,.91-3.16,.9-2.66,2.03-5.97,.01-9.13-2.07-3.24-6.04-3.68-7.34-3.83-1.22-.14-2.53-.2-4-.2h0Zm-16.83,111.62c1.46-6.82,3-13.63,4.54-20.27,1.12,6.28,2.37,12.48,3.61,18.6-.73,.16-1.45,.34-2.17,.51l-.21,.05c-2.04,.49-3.97,.97-5.78,1.12h0Z"/>
      </g>
      <path class="cls-1" d="M342.69,19.19c.08-.39,.17-.78,.25-1.18-6.6-.01-13.2-.03-19.8-.04-.44,0-.9,0-1.3,.17-1.65,.71-1.07,3.16-.28,4.78,9.41,19.17,9.58,41.39,9.57,62.75-.02,22.58-.03,45.17-.05,67.75,0,12.4-.06,25.07-3.51,37.09-2.78,9.66-10.7,22.66-22.43,22.11-5.42-.25-10.22-3.96-13.09-8.56-2.87-4.6-4.1-10.02-5.04-15.36-6.01-34.23-1.72-69.35-2.96-104.08-.4-11.32-1.39-22.65-.58-33.95s3.55-22.72,9.96-32.06c-12.79-.19-25.58-.39-38.38-.58,2.18,6.57,6.03,12.49,8.1,19.09,1.88,5.99,2.23,12.35,2.45,18.62,1.47,43.53-3.25,87.33,2.15,130.55,1.3,10.4,3.29,21.02,8.84,29.91,5.55,8.89,15.39,15.78,25.85,15.1,1.78-.12,3.87-.33,5.05,1.01,12.27-5.38,22.49-14.85,24.99-28.02-.35,1.48,2.45-5.93,4-17,.52-3.71,1.33-10.56,2-15,2.63-17.33,1.13-39.44,.62-55.9-1-32.49-3.03-65.4,3.6-97.2Zm-35.03,211.53c0-.07,0-.13,0-.2,.03-.09,.06-.19,.07-.32,1.04-.29,2.03-.87,3.05-1.31,.2-.15,.5-.16,.75-.3-1.29,.74-2.6,1.35-3.89,2.13Z"/>
      <path class="cls-1" d="M588.31,258.6s-.06-.07-.09-.1c-4.53-4.89-9.08-9.8-12.48-15.57-1.77-3-3.21-6.21-4.12-9.57s-.75-6.51-.81-9.98c-.07-3.83-.13-7.66-.19-11.49-.12-7.79-.22-15.58-.27-23.36-.05-7.77,.37-15.46,.17-23.2-.22-8.24-.46-16.47-.44-24.71,.02-12.75,.21-25.5,.18-38.25-.04-15.09-1.06-30.62-.03-45.74,.49-7.21,2.01-14.49,5.18-21.02,1.63-3.35,3.69-6.5,6.29-9.19,1.9-1.97,6.61-4.43,6.61-7.61,0-.37-.07-.69-.34-.94,1.08,1-2.08,.47-1.87,.5-1.05-.12-2.47-.95-3.6-1.18-3.19-.67-6.46-.78-9.7-.68-6.79,.22-29.97,.18-34.78-.47-3.49-.48-8.51-1.02-7.36,3.7,1.02,4.2,5.71,7.93,8.21,11.27,6.62,8.85,8.7,20.33,8.99,31.38,.66,24.63-.52,49.31-.34,73.94,.18,25.49,.37,50.99,.55,76.48,.05,7.49,.5,15.07-.77,22.49-1.52,8.86-5.94,13.97-11.98,20.27-3.18,3.32-3.61,3.43-.01,5.35,.87,.42,1.74,.3,2.61,.2,.52-.07,1.03-.12,1.56-.08,2.76,.76,5.58,.91,8.37,1.2,2.03,.46,3.97-.05,6.01-.12,2.4-.22,4.76,.42,7.17,.49,6.37,.18,13-1.13,19.36-1.83,1.65-.18,7.25-.84,7.75-.98,.17-.05,.34-.12,.44-.26,.19-.29,0-.65-.23-.93Zm-14.35-15.65c-.25-.59-.5-1.2-.72-1.84,.13,.3,.61,1.54,.72,1.84Zm-41.09-223.81s-.04,.02-.07,.03c0-.03-.02-.07-.03-.08,.03,.02,.07,.03,.1,.05Zm15.39,114.52c.04,1.25,.1,2.5,.18,3.73,0,1.25-.02,2.5-.05,3.75-.07-2.48-.11-4.98-.13-7.48Z"/>
      <path class="cls-1" d="M758.96,24.15c.66-1.6,1.15-3.13,.94-3.93-1.07-4.16-6.24-.93-9.49-1.45-8.69-1.37-17.49-2.05-26.29-2.03-2.54,0-23.43-.36-24.05,1.95-1.02,5.71,9.38,13.98,12.67,18,10.47,12.79,11.71,27.57,12.21,43.39,.55,17.45,1.1,34.91,1.65,52.36,.51,16.17,3.9,35.33,1.18,51.15-3.6-3.12-6-8.07-7.79-12.54,1.16,.98-48.22-86.44-56.64-133.9-1.11-6.3-1.78-13.04,.84-18.88-.55,1.23-21.95-.57-24.38-.6-8.41-.1-16.82-.1-25.23,0-3.77,.05-21.12-1.69-21.07,3.07,.02,2.45,5.53,7.85,7,9.9l7.19,10.03c6.51,9.08,8.42,16.99,8.44,28.15,0,55.29,.29,110.57,.46,165.86,.01,4.22,.03,8.45,.04,12.67,.05,15.76-.97,33.85-13.41,43.52-5.88,4.57-14.4,7.53-15.9,14.82,23.77,.24,47.54,.49,71.32,.73,3.02,.03,7.35-1.92,5.85-4.55-12.99-8.23-27.09-17.96-30.47-32.97-.99-4.37-.96-8.9-.93-13.38,.42-64.39,.84-128.77,1.26-193.16,12.13,30.51,24.31,61.01,36.55,91.47,12.11,30.15,24.28,60.28,36.55,90.37,4.81,12.63,9.95,25.12,15.16,37.59,3.22,7.71,6.48,15.39,9.45,23.16,1.44,3.78,3.41,7.4,5.99,10.53,1.33,1.61,2.81,3.1,4.45,4.39,2.09,1.65,2.97,1.84,3.7-.91,1.83-6.82,1.19-13.98,.88-20.94-1.09-24.68,.4-49.68,.74-74.39,0-48.96,.92-98.02,2.34-146.96,.37-12.75,1.42-25.55,4.18-38.03,.71-3.18,1.52-6.34,2.47-9.46,.32-1.04,1.36-3.12,2.16-5.07Zm-120.68,41.37c.06,.22,.12,.44,.18,.66-.08-.14-.15-.3-.23-.44,.02-.08,.03-.16,.05-.22Zm72.66,92.03c.11,.18,.2,.36,.31,.56-.2,.16-.4-.72-.31-.56Zm-19.85-37.34s-.03-.02-.02-.04c-.15-.42-.31-.84-.48-1.25,.88,1.71,1.74,3.42,2.6,5.13-.72-1.27-1.42-2.55-2.11-3.84Zm11.47,24.36h-.02c-.05-.1-.09-.2-.15-.32,.05,.12,.11,.22,.17,.32Zm34.33-124.36c.03,.08,.08,.14,.11,.2-.2-.02-.42-.02-.63-.04-.74-.04-1.5-.1-2.25-.16,.93,.04,1.84,.02,2.78,0Zm-72.05,115.76s.09,0,.14-.02c.54,1.55,1.07,3.08,1.61,4.64-.57-1.55-1.15-3.08-1.75-4.62Zm88.62-107.3c.05-.36,.08-.74,.11-1.11,.08,.02,.15,.02,.23,0-.11,.36-.22,.74-.34,1.11Z"/>
      <g>
        <path class="cls-2" d="M387.15,209.43c-3.97,0-7.79-1.12-11.48-2.2-3.4-1-6.62-1.94-9.67-1.94-1.42,0-2.7,.2-3.91,.63l-.32,.12c-.77,.28-1.72,.62-2.81,.62-.54,0-1.07-.09-1.56-.26-1.63-.56-3.55-2.19-3.46-6.71l1.2-60.5,4.97-.34c2.45,15.68,7.33,30.81,14.5,44.97,1.24,2.44,2.62,4.96,4.63,6.52,1.53,1.18,3.5,1.81,5.69,1.81,2.84,0,5.73-1.03,7.93-2.84,3.66-3,6.1-8.06,6.86-14.24,1.14-9.3-1.25-19.53-7.13-30.4-3.81-7.05-8.68-13.71-13.39-20.15-1.69-2.32-3.45-4.71-5.13-7.1-10.25-14.53-16.54-26.99-19.81-39.21-3.75-14.06-3.29-28.27,1.31-40.01,4.22-10.78,9.81-21.28,22.05-25.13,2.79-.88,5.73-1.32,8.73-1.32,7.47,0,14.84,2.78,20.22,7.63l.56,.51c1,.92,1.94,1.79,2.86,1.99,.02,0,.06,.01,.12,.01,.26,0,.5-.11,.64-.2v-.2s4.97-.38,4.97-.38c.08,.46,.08,.91,.02,1.36-.11,7.6-.14,15.31-.08,22.91,.03,3.87,.08,7.79,.16,11.65,.02,1.09,.1,2.25,.19,3.48,.19,2.76,.39,5.61-.04,8.31l-.78,4.78-3.45-3.4c-3.9-3.84-5.99-9.86-7.83-15.16-.42-1.2-.81-2.35-1.22-3.42-2.14-5.68-4.35-11.54-7.99-16.53-1.72-2.37-3.43-4.01-5.22-5.02-1.34-.76-2.75-1.16-4.08-1.16-2.03,0-3.76,.92-4.99,2.66-1.25,1.76-2.73,7.42-3.36,9.84-.23,.86-.42,1.59-.65,2.19-2.27,13.71,1.75,28.13,11.96,42.88,2.76,3.98,5.79,7.94,8.72,11.76,6.89,8.98,14.02,18.27,18.45,29.02,2.81,6.8,4.5,14.17,5.03,21.9,.81,11.75-1.11,24.03-5.55,35.53-2.78,7.21-5.92,12.45-9.87,16.51-5.1,5.24-11.66,8.25-18,8.25h-.02Z"/>
        <path class="cls-4" d="M386.35,14.23c6.75,0,13.52,2.46,18.55,6.98,1.38,1.24,2.74,2.69,4.56,3.09,.22,.05,.44,.07,.66,.07,1.4,0,2.88-.89,3.13-2.14-.12,7.72-.14,15.44-.08,23.16,.03,3.89,.08,7.79,.16,11.68,.07,3.62,.75,7.79,.17,11.34-4.33-4.27-6.36-12.11-8.46-17.68-2.24-5.94-4.54-11.95-8.3-17.12-1.64-2.25-3.58-4.35-6.01-5.72-1.73-.98-3.56-1.48-5.31-1.48-2.71,0-5.25,1.2-7.03,3.71-2.15,3.03-4.13,12.81-4.37,12.81,0,0,0,0-.01-.01-2.79,16.28,3.16,31.74,12.32,44.98,9.22,13.32,20.74,25.34,26.92,40.31,2.78,6.73,4.35,13.87,4.85,21.12,.8,11.64-1.17,23.54-5.39,34.46-2.2,5.71-5.06,11.28-9.33,15.66-4.26,4.38-10.09,7.49-16.21,7.49h-.02c-7.16,0-14.27-4.14-21.15-4.14-1.59,0-3.17,.22-4.73,.76-.75,.26-1.54,.6-2.31,.6-.25,0-.5-.04-.74-.12-1.57-.55-1.81-2.63-1.78-4.3,.4-20.17,.8-40.34,1.2-60.5,2.48,15.89,7.47,31.37,14.75,45.71,1.38,2.73,2.92,5.5,5.34,7.36,2.07,1.6,4.62,2.33,7.22,2.33,3.39,0,6.87-1.24,9.52-3.4,4.67-3.82,7.02-9.88,7.76-15.87,1.35-11.01-2.14-22.14-7.41-31.9-5.27-9.76-12.29-18.45-18.68-27.51-8.32-11.79-15.71-24.48-19.43-38.42-3.34-12.52-3.55-26.26,1.22-38.46,4.02-10.27,9.14-20.1,20.47-23.66,2.58-.81,5.28-1.2,7.98-1.2m-27.19,24.1c.54-1.61,1.34-2.82,1.86-4.42-.74,1.27-1.35,2.77-1.86,4.42m42.9,3.59c0-.09,0-.17,0-.24-.07-.09-.15-.17-.22-.25,.07,.17,.15,.33,.22,.5m-43.96,39.9c-.14-.69-.26-1.32-.37-1.92-.48-1.75-.9-3.57-1.25-5.43-.08-.3-.17-.6-.27-.91,.31,2.96,.91,5.94,1.89,8.26m1.79,3.45c-.12-.3-.23-.61-.35-.9,0,0,0-.01,0-.01,0,.01,0,.03-.01,.03,.1,.34,.2,.67,.37,.89m3.74,9.14c.04,.08,.08,.16,.13,.23-.04-.08-.08-.16-.13-.23-.91-1.74-1.55-3.96-2.53-5.49,.79,1.93,1.62,3.79,2.53,5.49m1.54,77.17c-.99-2.97-1.82-6.13-2.63-9.29,.47,3,2.48,8.94,2.63,9.29m37.71,2.44c0-.3,0-.6,0-.89-.04,.34-.08,.6-.1,.76,.05,.03,.08,.06,.11,.13m-.11,2.68s0,0,0,0c0,0,0,0,0,0,0,0,0,0,.01,0,0-.04,0-.06,0-.1,0,.04-.01,.07-.02,.11m-30.92,8.65s-.24-.29-.27-.29c-.02,0,.01,.06,.15,.23,.04,.04,.08,.06,.13,.06m37.75,2.37c.1-.23,.21-.44,.31-.67-.1,.14-.21,.28-.31,.41,0,.09,.01,.18,0,.27m-44.68,13.37c-.06-.22-.06-.47,.03-.7-.72,.17-.88,.67-.03,.7m3.02,.33c-.48-.18-.96-.3-1.44-.3-.16,0-.32,.01-.49,.04,.64,.05,1.28,.14,1.93,.25M413.26,21.51c.04,.25,.04,.49-.01,.72,0-.24,0-.48,.01-.72m-26.91-12.28s0,0,0,0c-3.26,0-6.45,.48-9.48,1.43-13.24,4.16-19.18,15.25-23.63,26.6-4.79,12.23-5.29,27-1.4,41.57,3.34,12.52,9.76,25.24,20.18,40.01,1.7,2.41,3.45,4.81,5.15,7.13,4.88,6.67,9.48,12.97,13.21,19.87,5.62,10.41,7.93,20.13,6.85,28.91-.4,3.21-1.7,9.12-5.96,12.61-1.74,1.42-4.11,2.27-6.35,2.27-1.14,0-2.78-.22-4.16-1.29-1.61-1.24-2.82-3.48-3.93-5.67-7.06-13.92-11.86-28.8-14.26-44.22l-9.94,.67-1.2,60.5c-.13,6.34,3.17,8.43,5.14,9.12,.76,.26,1.56,.4,2.38,.4,1.52,0,2.81-.46,3.66-.77l.3-.11c.94-.33,1.95-.49,3.09-.49,2.69,0,5.74,.89,8.97,1.84,3.86,1.13,7.85,2.3,12.18,2.3,7.03,0,14.24-3.28,19.81-9,4.19-4.31,7.5-9.82,10.41-17.35,4.57-11.83,6.55-24.49,5.71-36.6-.55-8-2.3-15.63-5.22-22.68-4.56-11.05-11.79-20.48-18.78-29.59-2.91-3.8-5.93-7.73-8.65-11.66-9.74-14.07-13.64-27.77-11.6-40.72,.07-.2,.14-.41,.2-.63,.11-.4,.27-.98,.45-1.67,1.33-5.07,2.33-8.11,2.98-9.03,.77-1.08,1.73-1.6,2.95-1.6,.9,0,1.88,.29,2.85,.84,1.47,.83,2.92,2.24,4.43,4.31,3.43,4.71,5.58,10.42,7.67,15.94,.39,1.03,.78,2.16,1.2,3.36,1.93,5.56,4.12,11.87,8.43,16.12l6.9,6.8,1.55-9.56c.48-2.98,.26-6.12,.07-8.88-.08-1.2-.16-2.32-.18-3.36-.08-3.86-.13-7.77-.16-11.63-.06-7.53-.03-15.17,.08-22.72,.07-.65,.06-1.31-.05-1.96l-8.75,.67-1.09-.12c.15-.74,.75-1.85,1.76-1.85,.13,0,.27,.02,.41,.05-.32-.11-1.15-.88-1.71-1.39-.19-.18-.39-.36-.58-.53-5.83-5.26-13.81-8.27-21.89-8.27h0Z"/>
      </g>
      <path class="cls-2" d="M222.77,314.84c-.44,2.81-.1,5.66,.95,8.3,.91,2.27,2.85,4.63,5.58,3.95,.97-.24,1.35-1.37,.9-2.2-.75-1.37-1.71-2.63-2.85-3.7-1.02-.95-3.05-.02-2.51,1.46,.41,1.1,.72,2.25,.85,3.42l2.26-1.3c-3.98-2.4-8.63-3.24-13.21-2.56-.8,.12-1.24,1.13-1.05,1.85,.24,.86,1.04,1.17,1.85,1.05,3.76-.56,7.66,.3,10.9,2.26,.9,.54,2.39-.14,2.26-1.3-.16-1.45-.45-2.85-.95-4.22l-2.51,1.46c.97,.91,1.75,1.92,2.38,3.09l.9-2.2c-.25,.06-.3,.03-.49-.07-.28-.15-.51-.38-.71-.63-.49-.61-.78-1.35-1.02-2.08-.61-1.85-.92-3.83-.61-5.77,.13-.8-.2-1.61-1.05-1.85-.71-.2-1.72,.24-1.85,1.05h0Z"/>
      <path class="cls-2" d="M210.87,325.79c5.27,1.03,10.65,1.34,15.99,.85,.81-.07,1.5-.64,1.5-1.5,0-.75-.69-1.57-1.5-1.5-5.08,.46-10.19,.23-15.19-.75-.79-.16-1.62,.23-1.85,1.05-.2,.74,.25,1.69,1.05,1.85h0Z"/>
      <path class="cls-2" d="M179.19,163.5c-.64,1.61-1.28,3.22-1.92,4.83-.19,.6-.21,1.2-.08,1.79,.03,.6,.21,1.16,.53,1.67,.28,.52,.67,.95,1.16,1.26,.43,.4,.94,.67,1.53,.81l1.2,.16c.81,0,1.57-.21,2.27-.61l.91-.7c.56-.56,.94-1.22,1.16-1.99,.64-1.61,1.28-3.22,1.92-4.83,.19-.6,.21-1.2,.08-1.79-.03-.6-.21-1.16-.53-1.67-.28-.52-.67-.95-1.16-1.26-.43-.4-.94-.67-1.53-.81l-1.2-.16c-.81,0-1.57,.21-2.27,.61l-.91,.7c-.56,.56-.94,1.22-1.16,1.99h0Z"/>
      <path class="cls-2" d="M247.48,149.87c-1.07-2.69-1.92-5.45-2.62-8.26s-1.35-5.7-2.34-8.46c-.49-1.35-2.63-.79-2.17,.6,1.6,4.81,3.2,9.62,4.8,14.43l2.06-.87c-2.82-4.88-4.5-10.35-4.86-15.98l-2.1,.57c.51,1.06,.84,2.16,1.06,3.31,.26,1.42,2.43,.82,2.17-.6s-.69-2.62-1.28-3.85c-.48-1-2.17-.52-2.1,.57,.39,6.03,2.14,11.88,5.17,17.12,.62,1.08,2.47,.37,2.06-.87-1.6-4.81-3.2-9.62-4.8-14.43l-2.17,.6c1,2.76,1.64,5.62,2.34,8.46s1.55,5.57,2.62,8.26c.53,1.33,2.71,.75,2.17-.6h0Z"/>
      <path class="cls-7" d="M456.63,284.35c.03,1.76,.99,3.1,2.07,4.41,1.15,1.39,2.15,2.88,3.13,4.4,2.06,3.21,4.12,6.42,6.17,9.63,1.04,1.62,3.64,.12,2.59-1.51-1.94-3.03-3.88-6.06-5.82-9.09-.9-1.41-1.82-2.82-2.83-4.15-.79-1.04-2.28-2.29-2.3-3.68-.03-1.93-3.03-1.93-3,0h0Z"/>
      <path class="cls-7" d="M454.57,381.54c-.56,2.3,.69,4.38,2.23,5.98,.61,.64,1.26,1.23,1.83,1.9,.06,.07,.2,.25,.07,.08,.07,.09,.14,.19,.2,.28,.12,.17,.22,.35,.32,.53,.02,.03,.17,.36,.1,.19s.07,.2,.07,.2c.03,.09,.05,.17,.07,.26,0,.04,.07,.46,.03,.14,.08,.78,.63,1.54,1.5,1.5,.74-.03,1.59-.66,1.5-1.5-.22-2.06-1.44-3.57-2.86-4.99-.31-.31-.63-.61-.92-.94-.16-.17-.31-.35-.46-.53-.17-.22,.18,.27-.09-.13-.06-.09-.12-.17-.17-.26-.14-.21-.26-.44-.37-.66-.04-.08-.08-.2-.02-.05-.04-.12-.08-.23-.11-.35-.03-.09-.04-.19-.06-.28-.04-.15-.01,.17,0-.1,0-.1,0-.19,0-.29,0,.27,.03-.12,.04-.18,.19-.76-.24-1.66-1.05-1.85s-1.64,.23-1.85,1.05h0Z"/>
      <path class="cls-7" d="M395.03,420.09c3.34,9.67,10.94,17.45,20.51,21.05,1.81,.68,2.59-2.22,.8-2.89-8.53-3.21-15.45-10.34-18.42-18.95-.63-1.81-3.52-1.03-2.89,.8h0Z"/>
      <path class="cls-7" d="M506.13,451.06c2.4,.08,4.94,.21,7.31-.18,1.84-.3,3.51-2.47,1.94-4.13-.33-.35-.75-.55-1.22-.65-.27-.06-1.13-.17-1.35,.04-.26,0-.19,.16,.21,.45,.21,.53,.33,.6,.36,.22,.13-.15,.15-.68,.19-.89,.12-.65,.22-1.3,.31-1.96,.15-1.18,.22-2.37,.23-3.56s-.08-2.49,.42-3.62h-2.59c.76,1.46-.86,2.81-1.97,3.46-1.57,.92-3.26,1.61-4.85,2.52s-3.12,1.93-4.57,3.05c-.7,.54-1.36,1.11-2.03,1.69-.3,.25-.59,.52-.9,.76-.21,.16-.42,.31-.64,.46-.62,.24-.55,.67,.23,1.28,.38-.95-.57-1.87-1.45-1.9-1.86-.06-3.7,.07-5.54,.33-.81,.12-1.24,1.13-1.05,1.85,.23,.86,1.05,1.16,1.85,1.05,1.57-.23,3.16-.28,4.74-.22l-1.45-1.9c-.41,1.02,.19,2.19,1.16,2.63,1.32,.6,2.61-.2,3.65-.98,2.28-1.71,4.31-3.6,6.78-5.07,3.59-2.14,11.63-4.75,8.62-10.51-.49-.93-2.14-1.03-2.59,0-.86,1.96-.78,3.9-.84,5.99-.03,1.07-.12,2.14-.3,3.2-.15,.94-.6,2.01-.41,2.97,.17,.85,.81,1.46,1.66,1.65,.32,.07,.61,.07,.94,.04,.22-.03,.44-.06,.66-.09,.04-.94-.2-1.31-.72-1.1-.48-.11-1.21,.08-1.7,.1-.46,.02-.93,.03-1.39,.04-1.24,.03-2.47,0-3.71-.03-1.93-.07-1.93,2.93,0,3h0Z"/>
      <path class="cls-7" d="M510.83,379.65c.2,.02,.39,.04,.58,.06,.48,.05-.29-.05,.18,.02,.34,.05,.68,.11,1.01,.17,.67,.13,1.34,.29,2,.48s1.31,.41,1.95,.67c.14,.05,.27,.11,.41,.17-.24-.1,.27,.12,.31,.14,.31,.14,.62,.29,.93,.45l.76-2.8c-.69,.07-1.39,.08-2.09,.04-.19-.01-.37-.03-.56-.05-.33-.03,.2,.04-.15-.02s-.69-.12-1.03-.2c-.66-.15-1.3-.36-1.92-.61,.28,.11-.23-.11-.28-.13-.13-.06-.25-.12-.38-.19-.33-.17-.65-.36-.97-.55-.67-.42-1.68-.16-2.05,.54-.39,.74-.17,1.61,.54,2.05,2.62,1.64,5.81,2.42,8.89,2.12,.64-.06,1.29-.42,1.45-1.1,.14-.62-.08-1.38-.69-1.69-2.79-1.42-5.77-2.28-8.89-2.57-.78-.07-1.53,.74-1.5,1.5,.04,.88,.66,1.42,1.5,1.5h0Z"/>
      <path class="cls-7" d="M582.03,427.01c-3,3.91-5.35,8.24-7.08,12.84-.28,.76,.32,1.64,1.05,1.85,.84,.23,1.56-.29,1.85-1.05,1.64-4.35,3.95-8.44,6.78-12.13,.49-.64,.1-1.68-.54-2.05-.77-.45-1.56-.11-2.05,.54h0Z"/>
      <path class="cls-7" d="M603.94,431.54c.01-2.03-.14-4.14-1.08-5.98-.46-.9-1.16-1.68-2.02-2.21s-2.03-.59-2.85-1.23c-1.06-.83-1.53-2.56-2.02-3.87-.63-1.69-1.35-3.45-2.81-4.6-.64-.5-1.5-.62-2.12,0-.52,.52-.64,1.62,0,2.12,1.2,.95,1.7,2.36,2.21,3.75,.58,1.58,1.16,3.25,2.37,4.47,.67,.68,1.48,1.12,2.38,1.43,.76,.26,1.46,.42,1.96,1.1,1.01,1.36,.99,3.39,.98,5-.01,1.93,2.99,1.93,3,0h0Z"/>
      <path class="cls-7" d="M594.35,416.55c1.01,3.48,2.2,6.91,3.57,10.27,.31,.75,1,1.28,1.85,1.05,.71-.2,1.36-1.09,1.05-1.85-1.37-3.36-2.56-6.78-3.57-10.27-.22-.78-1.06-1.26-1.85-1.05s-1.27,1.06-1.05,1.85h0Z"/>
      <path class="cls-7" d="M557.06,283.38c.1,4.53,.87,9.02,2.34,13.31,.62,1.81,3.46,1.07,2.89-.8-1.61-5.32-2.65-10.8-3.82-16.22s-2.37-10.97-3.55-16.46c-.41-1.89-3.3-1.09-2.89,.8,1.18,5.49,2.37,10.97,3.55,16.46,1.17,5.42,2.2,10.91,3.82,16.22l2.89-.8c-1.38-4.05-2.14-8.23-2.23-12.51-.04-1.93-3.04-1.93-3,0h0Z"/>
      <g>
        <path class="cls-7" d="M669.12,500.86c-5.05,0-10.04-1.27-14.87-2.49-4.66-1.18-9.06-2.3-13.34-2.3-2.36,0-4.47,.34-6.45,1.05l-.46,.17c-1.03,.38-2.2,.81-3.49,.81-.53,0-1.04-.07-1.52-.22-1.83-.56-4-2.31-4.01-7.51l-.18-79.81,3.97-.37c3.89,20.72,11.15,40.64,21.59,59.19,1.86,3.31,3.94,6.73,7.02,8.88,2.32,1.63,5.24,2.48,8.46,2.48,4.35,0,8.94-1.62,12.27-4.35,5.25-4.29,8.64-11.33,9.54-19.83,1.33-12.55-2.36-26.2-10.96-40.58-5.54-9.26-12.52-17.92-19.27-26.3-2.41-2.99-4.9-6.09-7.3-9.17-14.54-18.7-23.57-34.8-28.42-50.67-5.55-18.17-5.35-36.66,.57-52.04,5.4-14.04,12.63-27.75,28.88-33.03,3.99-1.3,8.22-1.95,12.57-1.95,9.62,0,19.18,3.31,26.23,9.08,.26,.21,.52,.43,.78,.65,1.57,1.31,3.04,2.55,4.72,2.86,.14,.03,.29,.04,.44,.04,1.15,0,2.16-.68,2.38-1.18v-.68s3.96-.41,3.96-.41c.1,.5,.12,1,.05,1.5,.07,10.09,.27,20.29,.59,30.32,.16,5.15,.36,10.33,.58,15.37,.06,1.48,.21,3.02,.37,4.65,.34,3.56,.7,7.25,.2,10.68l-.54,3.69-2.77-2.49c-5.28-4.74-8.3-12.45-10.96-19.26-.62-1.59-1.21-3.1-1.8-4.49-3.17-7.5-6.46-15.25-11.74-21.83-2.58-3.22-5.15-5.45-7.85-6.82-2.02-1.03-4.16-1.57-6.18-1.57-3.39,0-6.34,1.52-8.3,4.28-1.81,2.55-3.66,9.94-4.54,13.49-.34,1.35-.58,2.31-.84,2.98-2.79,18.47,3.3,37.68,18.09,57.07,3.96,5.19,8.29,10.32,12.48,15.28,9.76,11.56,19.85,23.51,26.25,37.38,4.04,8.76,6.58,18.29,7.53,28.33,1.46,15.29-.8,31.37-6.54,46.5-3.57,9.42-7.66,16.29-12.88,21.64-6.64,6.8-15.25,10.81-23.63,11-.22,0-.44,0-.66,0Z"/>
        <path class="cls-5" d="M663.71,244.8c9.04,0,18.1,3.01,24.96,8.63,1.95,1.6,3.88,3.46,6.4,3.93,.26,.05,.54,.07,.81,.07,1.98,0,4.06-1.24,4.39-2.92,.07,10.18,.27,20.36,.59,30.53,.16,5.13,.35,10.27,.58,15.4,.21,4.77,1.28,10.25,.59,14.95-6.12-5.49-9.18-15.77-12.26-23.04-3.28-7.75-6.65-15.61-12.02-22.31-2.34-2.92-5.1-5.62-8.5-7.36-2.33-1.18-4.76-1.79-7.09-1.79-3.87,0-7.48,1.67-9.93,5.12-2.88,4.06-5.33,17.03-5.67,17.03,0,0-.01,0-.02-.02-3.37,21.55,5.35,41.75,18.43,58.91,13.17,17.27,29.49,32.74,38.5,52.29,4.05,8.79,6.45,18.15,7.36,27.69,1.46,15.32-.91,31.08-6.42,45.6-2.88,7.6-6.66,15.03-12.44,20.95-5.78,5.92-13.77,10.21-22.24,10.39-.21,0-.41,0-.62,0-9.51,0-19.06-4.8-28.21-4.8-2.4,0-4.78,.33-7.12,1.17-1.06,.38-2.18,.86-3.27,.86-.32,0-.63-.04-.94-.14-2.19-.67-2.59-3.41-2.6-5.61-.06-26.6-.12-53.21-.18-79.81,3.92,20.86,11.31,41.13,21.81,59.8,2,3.55,4.21,7.15,7.61,9.54,2.79,1.96,6.16,2.85,9.6,2.85,4.84,0,9.83-1.76,13.54-4.8,6.35-5.19,9.42-13.25,10.26-21.17,1.54-14.56-3.64-29.12-11.24-41.81-7.6-12.7-17.58-23.93-26.71-35.67-11.88-15.28-22.5-31.77-28.08-50.03-5.01-16.4-5.72-34.51,.52-50.74,5.26-13.67,12.05-26.79,27.64-31.84,3.85-1.25,7.9-1.85,11.95-1.85m-37.85,32.65c.7-2.14,1.76-3.76,2.44-5.88-.98,1.7-1.79,3.69-2.44,5.88m59.52,3.37c-.01-.12-.01-.22-.02-.32-.1-.11-.21-.21-.31-.33,.1,.22,.21,.43,.33,.65m-59.67,54.01c-.21-.9-.4-1.73-.57-2.52-.72-2.29-1.35-4.67-1.9-7.12-.12-.4-.26-.78-.4-1.2,.52,3.89,1.44,7.8,2.87,10.84m2.59,4.5c-.17-.4-.34-.8-.51-1.18,0,0,0-.02,0-.02h0s0,.03-.02,.03c.14,.45,.3,.88,.53,1.16m5.45,11.92c.06,.1,.12,.21,.18,.31-.06-.1-.12-.2-.18-.31-1.32-2.26-2.27-5.17-3.67-7.16,1.15,2.52,2.36,4.94,3.67,7.16m4.48,101.69c-1.46-3.89-2.71-8.03-3.93-12.17,.74,3.94,1.82,7.59,3.29,10.76,.22,.46,.42,.94,.64,1.41m52.3,2.01c0-.4-.03-.79-.04-1.17-.05,.45-.09,.79-.12,1.01,.06,.03,.12,.08,.16,.16m-.07,3.54s0,0,0,.01c0,0,0,0,0-.01,0,0,0,0,.02,0,0-.05,0-.08,0-.13,0,.05-.01,.09-.02,.14m-41.41,14.9c.05,0,.1,0,.14,0-.38-.85-.72-1.74-1.05-2.66-.07,.1-.16,.15-.25,.16,0,0,0,0,0,0-.06,0-.12-.03-.18-.08-.6-.71-1.21-1.45-1.79-2.22,.82,2.14,1.76,4.16,3.13,4.8m51.2-.58c.14-.3,.28-.59,.42-.9-.14,.19-.28,.37-.42,.55,.01,.12,.02,.23,0,.35m-61.45,18.13c-.99,.24-1.97,.5-2.94,.86t-.02,0c-.19,.14-.39,.26-.57,.42,1.13-.25,2.26-.35,3.39-.35,.04,0,.07,0,.11,0-.09-.28-.09-.62,.02-.92m4.18,1.26c-.64-.21-1.28-.35-1.9-.35-.26,0-.52,.02-.77,.07,.89,.05,1.78,.14,2.68,.27m57.29-238.65c.07,.33,.06,.65,0,.95,0-.32,0-.63,0-.95m-36.55-12.75c-4.56,0-9,.69-13.19,2.05-17.05,5.53-24.56,19.71-30.13,34.21-6.08,15.8-6.29,34.75-.61,53.34,4.92,16.11,14.06,32.42,28.75,51.32,2.41,3.1,4.91,6.2,7.33,9.2,6.7,8.32,13.64,16.93,19.11,26.07,8.38,13.99,11.97,27.23,10.69,39.34-.49,4.62-2.28,13.16-8.82,18.49-2.98,2.44-7.1,3.89-11.01,3.89-2.8,0-5.33-.73-7.31-2.12-2.73-1.91-4.67-5.11-6.42-8.22-10.33-18.36-17.52-38.07-21.37-58.58l-7.93,.75,.18,79.81c.02,6.76,3.41,8.81,5.43,9.42,.67,.21,1.38,.31,2.11,.31,1.65,0,3.05-.52,4.18-.93l.44-.16c1.76-.63,3.65-.93,5.78-.93,4.03,0,8.31,1.09,12.85,2.24,4.95,1.26,10.06,2.56,15.36,2.56,.24,0,.47,0,.7,0,8.9-.2,18.01-4.43,25.01-11.6,5.41-5.55,9.64-12.64,13.32-22.33,5.84-15.41,8.15-31.8,6.66-47.4-.98-10.26-3.57-20.02-7.71-28.98-6.51-14.12-16.69-26.18-26.54-37.84-4.17-4.94-8.49-10.05-12.41-15.2-14.39-18.87-20.36-37.48-17.74-55.33,.11-.27,.2-.56,.29-.87,.14-.52,.33-1.27,.55-2.16,.79-3.17,2.65-10.58,4.23-12.82,2.02-2.84,4.74-3.44,6.67-3.44,1.71,0,3.53,.47,5.28,1.35,2.44,1.24,4.79,3.3,7.19,6.29,5.11,6.38,8.34,13.99,11.46,21.36,.58,1.37,1.16,2.86,1.78,4.45,2.74,7.01,5.85,14.96,11.49,20.02l5.55,4.97,1.08-7.37c.54-3.67,.17-7.48-.19-11.16-.15-1.6-.3-3.12-.36-4.54-.22-5.1-.42-10.26-.58-15.35-.31-9.98-.51-20.12-.59-30.13,.08-.67,.05-1.35-.09-2.02l-7.79,.81c.07-.21,.17-.34,.2-.37-.09,.08-.41,.24-.71,.24-.05,0-.07,0-.08,0-1.16-.22-2.45-1.29-3.81-2.43-.27-.22-.53-.44-.8-.66-7.4-6.06-17.42-9.53-27.49-9.53h0Z"/>
      </g>
      <path class="cls-2" d="M194.19,132.04c1.87-.04,3.63,.79,5.47,1.02,2.14,.27,4.33,.11,6.48,.06,4.37-.1,8.74-.2,13.11-.3,1.8-.04,1.89-2.33,.4-2.95-3.88-1.61-8.01-2.77-12.24-2.74-4.5,.04-9,.2-13.5,.3-1.93,.04-1.93,3.04,0,3,4.34-.1,8.68-.23,13.02-.3s8.11,1.04,11.92,2.63l.4-2.95c-4.37,.1-8.74,.2-13.11,.3-2.07,.05-4.23,.26-6.28-.04-1.92-.28-3.7-1.08-5.67-1.04s-1.93,3.04,0,3h0Z"/>
      <path class="cls-2" d="M186.01,166.63c14.03-.76,28.3-3.89,42.26-.93,1.88,.4,2.69-2.49,.8-2.89-14.28-3.03-28.72,.04-43.06,.82-1.92,.1-1.93,3.11,0,3h0Z"/>
      <path class="cls-2" d="M186.2,163.94c-1.33,4.14-2.67,8.29-4,12.43-.59,1.84,2.3,2.63,2.89,.8,1.33-4.14,2.67-8.29,4-12.43,.59-1.84-2.3-2.63-2.89-.8h0Z"/>
      <path class="cls-2" d="M175.05,211.38c-.02,15.62-6.7,31.11-2.71,46.69,.48,1.87,3.37,1.08,2.89-.8-3.9-15.21,2.8-30.61,2.82-45.89,0-1.93-3-1.93-3,0h0Z"/>
      <path class="cls-2" d="M266.47,266.74c6.49-.34,12.98-.67,19.47-1.01l-1.06-2.56,.23,.09c-1.87-.31-2.69,2.35-.8,2.89,1.33,.38,2.7,.51,4.08,.36,.81-.09,1.49-.62,1.5-1.5,0-.74-.7-1.59-1.5-1.5-1.13,.13-2.19,.06-3.28-.25l-.8,2.89c1.02,.17,2.02-.01,2.69-.86,.73-.93,.37-2.63-1.06-2.56-6.49,.34-12.98,.67-19.47,1.01-1.92,.1-1.93,3.1,0,3h0Z"/>
      <path class="cls-2" d="M220.58,53.39c.53,16.55,4.38,32.82,8.32,48.84,.99,4.03,2.2,8.09,4.62,11.52,.65,.93,2.52,1.04,2.74-.36,.3-1.91-.08-3.62-.71-5.42s-1.25-3.79-1.74-5.73c-.94-3.74-1.59-7.55-2.26-11.35s-1.4-7.75-2.48-11.54-2.42-7.27-3.5-10.94c-1.23-4.19-2.11-8.56-1.38-12.93l-2.95-.4c.12,18.82,1.85,37.61,5.13,56.14,.34,1.9,3.23,1.09,2.89-.8-3.24-18.27-4.91-36.79-5.02-55.34-.01-1.63-2.66-2.12-2.95-.4-1.3,7.71,1.52,14.98,3.87,22.19s3.37,15.16,4.97,22.79c.46,2.18,.99,4.36,1.64,6.49,.61,1.99,1.92,4.32,1.59,6.45l2.74-.36c-2.07-2.94-3.17-6.31-4.06-9.77-.97-3.79-1.84-7.6-2.72-11.41-1.83-7.92-3.52-15.89-4.6-23.96-.61-4.55-1-9.12-1.15-13.71-.06-1.93-3.06-1.93-3,0h0Z"/>
      <path class="cls-2" d="M246.09,157.96c-.15-1.81-.11-3.63,.18-5.43l-2.51,.66c1.26,1.28,1.9,2.92,1.87,4.71h3c-.18-1.75-.35-3.49-.53-5.24s-.3-3.46-1-5.09c-.66-1.55-1.32-3-1.71-4.65s-.64-3.41-.87-5.13c-.11-.8-1.14-1.25-1.85-1.05-.87,.24-1.16,1.04-1.05,1.85,.45,3.31,1.02,6.47,2.44,9.52,.69,1.49,.87,2.94,1.03,4.56,.18,1.75,.35,3.49,.53,5.24,.19,1.88,2.97,1.97,3,0,.03-2.57-.95-5-2.75-6.83-.73-.74-2.32-.48-2.51,.66-.34,2.07-.46,4.13-.29,6.22,.15,1.91,3.16,1.93,3,0h0Z"/>
      <path class="cls-2" d="M363.34,201.89c2.33,.09,4.67,.04,7-.15,.78-.07,1.54-.64,1.5-1.5-.03-.76-.66-1.57-1.5-1.5-2.33,.2-4.66,.25-7,.15-.78-.03-1.54,.71-1.5,1.5,.04,.84,.66,1.47,1.5,1.5h0Z"/>
      <path class="cls-2" d="M360.1,163.31c-.04,.95,.24,1.83,.59,2.7s.67,1.67,.98,2.52c.61,1.67,1.14,3.36,1.61,5.07,.21,.78,1.06,1.26,1.85,1.05s1.26-1.06,1.05-1.85c-.45-1.65-.97-3.28-1.55-4.89-.29-.79-.59-1.57-.9-2.35s-.66-1.5-.62-2.24c.04-.78-.72-1.54-1.5-1.5-.84,.04-1.46,.66-1.5,1.5h0Z"/>
      <path class="cls-2" d="M370.89,187.74c1.93,0,1.93-3,0-3s-1.93,3,0,3h0Z"/>
      <path class="cls-2" d="M408.94,188.7c1.93,0,1.93-3,0-3s-1.93,3,0,3h0Z"/>
      <path class="cls-2" d="M403.92,175.7c1.93,0,1.93-3,0-3s-1.93,3,0,3h0Z"/>
      <path class="cls-2" d="M403.98,178.08c1.93,0,1.93-3,0-3s-1.93,3,0,3h0Z"/>
      <path class="cls-2" d="M355.95,74.36c.1,1.8,.7,3.43,1.44,5.06s1.51,3.29,2.35,4.89c.73,1.38,1.63,2.69,2.02,4.22s.63,3.02,1.66,4.35c.5,.64,1.6,.52,2.12,0,.63-.63,.5-1.48,0-2.12-.73-.94-.69-2.43-1.03-3.54-.46-1.48-1.3-2.78-2.02-4.13-.78-1.46-1.48-2.97-2.18-4.47-.63-1.35-1.27-2.75-1.36-4.26-.11-1.92-3.11-1.93-3,0h0Z"/>
      <path class="cls-2" d="M357.43,79.09c-.08,1.81,1.07,3.38,1.78,4.97s.61,3.63,2.58,4.15l-1.05-1.05c.66,2.62,1.47,5.19,2.43,7.72l2.74-1.16c-.96-1.95-1.87-3.93-2.71-5.94-.31-.75-.99-1.28-1.85-1.05-.7,.19-1.36,1.09-1.05,1.85,.95,2.25,1.94,4.47,3.01,6.65,.74,1.51,3.35,.44,2.74-1.16-.96-2.52-1.77-5.1-2.43-7.72-.13-.5-.55-.92-1.05-1.05,.09,.04,.16,.11,.2,.2-.05-.16-.09-.33-.12-.49-.06-.25-.11-.51-.19-.76-.2-.67-.49-1.32-.79-1.95-.46-.97-1.31-2.1-1.26-3.22,.09-1.93-2.91-1.93-3,0h0Z"/>
      <path class="cls-2" d="M334.16,85.9c.54,13.52,.89,27.05,1.05,40.58,.01,.96,1.51,.97,1.5,0-.16-13.53-.51-27.06-1.05-40.58-.04-.96-1.54-.97-1.5,0h0Z"/>
      <path class="cls-2" d="M468.09,117.67c-.39,5.43-.39,10.87,0,16.3,.12,1.68,2.4,2.04,2.95,.4,1.1-3.31,2.01-6.69,2.71-10.11,.38-1.88-2.51-2.69-2.89-.8-.7,3.42-1.6,6.8-2.71,10.11l2.95,.4c-.39-5.43-.39-10.87,0-16.3,.06-.81-.73-1.5-1.5-1.5-.86,0-1.44,.69-1.5,1.5h0Z"/>
      <path class="cls-2" d="M479.8,120.46c-.09,3.16-.48,6.12-1.21,9.19-.18,.76,.24,1.66,1.05,1.85s1.65-.23,1.85-1.05c.78-3.27,1.22-6.63,1.31-9.99,.02-.79-.71-1.54-1.5-1.5s-1.48,.66-1.5,1.5h0Z"/>
      <path class="cls-2" d="M467.64,130.9c-.11,.8-.16,1.61-.15,2.43,0,.39,.17,.79,.44,1.06,.26,.26,.69,.46,1.06,.44s.79-.14,1.06-.44,.44-.66,.44-1.06c0-.81,.04-1.62,.15-2.43,0-.21-.04-.4-.13-.58-.06-.19-.16-.35-.31-.48-.26-.26-.69-.46-1.06-.44s-.79,.14-1.06,.44l-.23,.3c-.14,.23-.2,.49-.2,.76h0Z"/>
      <path class="cls-2" d="M479.31,87.67c.31,5.31,.28,10.62-.08,15.93-.06,.81,.73,1.5,1.5,1.5,.86,0,1.44-.69,1.5-1.5,.37-5.3,.39-10.62,.08-15.93-.11-1.92-3.11-1.93-3,0h0Z"/>
      <path class="cls-4" d="M447.64,226.34c2.97,2.32,6.64,2.73,10.3,2.9,.78,.04,1.54-.72,1.5-1.5-.04-.84-.66-1.46-1.5-1.5-.79-.04-1.59-.08-2.38-.16s-1.14-.11-2.03-.3c-.74-.16-1.47-.36-2.17-.65,.26,.1-.26-.12-.3-.14-.17-.08-.34-.17-.51-.27s-.33-.2-.49-.3c-.04-.03-.48-.35-.29-.19-.62-.48-1.53-.65-2.12,0-.49,.54-.66,1.61,0,2.12h0Z"/>
      <path class="cls-4" d="M448.79,222.91c-.53,.47-.99,1.08-1.28,1.73l2.8,.76c-.07-.49-.09-.98-.02-1.46l-.05,.4c.04-.28,.11-.55,.22-.81l-.15,.36c.08-.19,.18-.37,.31-.54l-.23,.3c.12-.15,.26-.29,.41-.41l-.3,.23c.15-.12,.32-.21,.5-.29l-.36,.15c.14-.06,.29-.1,.44-.12l-.4,.05c.15-.02,.3-.02,.46,0l-.4-.05c.07,.01,.14,.03,.2,.04,.37,.1,.82,.04,1.16-.15,.31-.18,.61-.54,.69-.9,.18-.79-.24-1.62-1.05-1.85-.32-.09-.67-.14-1.01-.1-.48,.05-.82,.14-1.25,.34-.61,.27-1.09,.75-1.47,1.28-.34,.48-.56,1.08-.64,1.66-.09,.63-.11,1.23-.03,1.86l.05,.4c.05,.2,.14,.37,.27,.51,.19,.25,.47,.47,.78,.54,.26,.06,.53,.06,.8,0,.32-.07,.76-.38,.9-.69s.31-.6,.52-.86l-.23,.3c.16-.2,.34-.39,.53-.56,.28-.25,.44-.7,.44-1.06s-.16-.81-.44-1.06-.66-.46-1.06-.44-.75,.16-1.06,.44h0Z"/>
      <path class="cls-4" d="M447.84,226.94c1.93,0,1.93-3,0-3s-1.93,3,0,3h0Z"/>
      <path class="cls-2" d="M552.57,126.9c-.77,5.72-1.99,11.62-1.4,17.41l1.1-1.45,.07-.02,.76,.2c.57,.31,.08,.2,.14,.11,.13-.2-.03-1.01-.03-1.26-.02-.72-.03-1.44-.04-2.16-.03-1.5-.04-3-.05-4.5-.01-3,.01-6,.08-9,.04-1.93-2.96-1.93-3,0-.08,3.78-.1,7.56-.06,11.34,.02,1.85-.03,3.73,.11,5.58,.11,1.46,1.12,3.15,2.83,2.6,.58-.19,1.17-.78,1.1-1.45-.56-5.54,.56-11.14,1.3-16.61,.11-.8-.19-1.61-1.05-1.85-.7-.19-1.74,.24-1.85,1.05h0Z"/>
      <path class="cls-2" d="M568.93,243.41c.81,1.24,1.55,2.53,2.21,3.86l2.59-1.51c-.57-.75-1.06-1.55-1.45-2.41-.04-.09-.09-.19-.13-.29-.06-.15-.05-.11,.05,.11-.02-.06-.05-.11-.07-.17-.09-.22-.17-.45-.25-.67-.15-.45-.28-.91-.38-1.38l-2.51,1.46c.34,.27,.66,.57,.95,.89,.07,.08,.14,.16,.22,.25,.04,.04,.07,.08,.1,.13,.13,.16-.05-.08-.08-.11,.16,.15,.28,.38,.4,.57,.24,.37,.43,.75,.62,1.15,.08,.17-.12-.31-.06-.13,.02,.05,.04,.1,.06,.15,.04,.1,.08,.2,.11,.31,.07,.22,.14,.44,.2,.66,.19,.76,1.09,1.29,1.85,1.05s1.25-1.03,1.05-1.85c-.51-2-1.67-3.88-3.28-5.18-.27-.21-.51-.37-.86-.41-.32-.04-.68,0-.96,.18-.58,.38-.84,1.02-.69,1.69,.43,1.98,1.3,3.9,2.53,5.52,.25,.32,.49,.58,.9,.69,.36,.1,.84,.05,1.16-.15,.72-.46,.91-1.3,.54-2.05-.66-1.33-1.4-2.61-2.21-3.86-.43-.66-1.35-.99-2.05-.54-.65,.42-1,1.35-.54,2.05h0Z"/>
      <path class="cls-2" d="M633.98,54.77c2.62,3.42,4.86,7.1,6.71,10.99l2.36-1.82c-2.25-1.83-3.73-4.2-4.35-7.03l-2.74,1.16c3.93,6.81,7.38,13.89,10.3,21.19l2.74-1.16c-2.62-4.33-5.23-8.65-7.85-12.98-1.01-1.67-3.45-.2-2.59,1.51,3.36,6.72,6.72,13.44,10.07,20.16l2.59-1.51c-4.71-8.54-8.98-17.32-12.76-26.3l-2.51,1.46c5.9,6.12,8.23,14.56,11.48,22.19,3.77,8.86,9.74,16.58,13.16,25.61,1.97,5.2,3.38,10.59,4.79,15.97,.49,1.87,3.38,1.07,2.89-.8-1.27-4.85-2.55-9.72-4.23-14.45s-3.87-9.2-6.38-13.54-5-8.37-6.99-12.83c-1.78-3.99-3.22-8.12-4.95-12.12-1.92-4.42-4.27-8.66-7.64-12.15-.97-1.01-3.11,.03-2.51,1.46,3.88,9.23,8.23,18.25,13.06,27.02,.94,1.7,3.45,.2,2.59-1.51-3.36-6.72-6.72-13.44-10.07-20.16l-2.59,1.51c2.62,4.33,5.23,8.65,7.85,12.98,.84,1.39,3.39,.48,2.74-1.16-3.02-7.55-6.55-14.87-10.6-21.91-.87-1.51-3.1-.48-2.74,1.16,.72,3.28,2.52,6.24,5.12,8.36,1.32,1.07,3.11-.23,2.36-1.82-1.85-3.89-4.1-7.56-6.71-10.99-1.16-1.51-3.76-.02-2.59,1.51h0Z"/>
      <path class="cls-2" d="M665.35,131.58c.85,4.04,2.34,7.95,4.38,11.54,.95,1.68,3.55,.17,2.59-1.51-1.92-3.38-3.28-7.01-4.08-10.82-.17-.79-1.1-1.25-1.85-1.05-.82,.23-1.21,1.05-1.05,1.85h0Z"/>
      <path class="cls-2" d="M686.69,119.41c.23,1.61,1.25,3.09,2,4.5,.82,1.53,1.63,3.05,2.45,4.58,.29,.55,1.09,.9,1.69,.69,2.67-.93,.56-4.63-.29-6.23-.96-1.79-2.13-3.49-2.76-5.43s-3.25-1.09-2.89,.8c.41,2.15,1.81,3.99,2.44,6.08s.79,4.17,.59,6.3c-.08,.81,.74,1.5,1.5,1.5,.87,0,1.42-.69,1.5-1.5,.22-2.3,0-4.66-.64-6.88-.32-1.14-.77-2.24-1.29-3.3-.48-.98-1.01-1.9-1.21-2.99l-2.89,.8c.56,1.73,1.45,3.3,2.35,4.87,.42,.73,.83,1.46,1.19,2.21,.15,.32,.29,.64,.41,.98,.08,.23,.16,.46,.22,.69,.03,.1,.06,.2,.08,.3,.08,.41,.11,.27,.11-.43l.9-.69-.12,.04,1.69,.69c-.78-1.45-1.55-2.91-2.33-4.36-.67-1.26-1.61-2.56-1.81-4-.12-.8-1.13-1.24-1.85-1.05-.86,.24-1.16,1.04-1.05,1.85h0Z"/>
      <path class="cls-2" d="M698.87,145.21c1.29,1.89,2.78,3.57,4.55,5.03,.91,.75,2.66,.36,2.56-1.06-.19-2.7-1.17-5.08-2.92-7.15-1.16-1.37-3.06,.37-2.36,1.82,2.15,4.38,4.3,8.76,6.45,13.14,1.98,4.04,4.44,8.12,5.09,12.64,.27,1.9,3.16,1.09,2.89-.8-.66-4.6-3.16-8.8-5.17-12.91-2.22-4.53-4.44-9.06-6.67-13.58l-2.36,1.82c1.2,1.42,1.91,3.17,2.04,5.03l2.56-1.06c-1.57-1.29-2.94-2.74-4.08-4.42-1.08-1.59-3.68-.09-2.59,1.51h0Z"/>
      <path class="cls-4" d="M701.5,139.99c.15,1.72,1.01,3.15,1.84,4.62s1.68,2.87,2.58,4.26c1.81,2.82,3.79,5.53,5.89,8.14,.51,.63,1.59,.53,2.12,0,.62-.62,.51-1.49,0-2.12-1.88-2.34-3.63-4.77-5.26-7.29-.8-1.23-1.56-2.48-2.3-3.75-.39-.68-.78-1.36-1.15-2.04-.31-.57-.66-1.17-.72-1.83-.07-.81-.64-1.5-1.5-1.5-.76,0-1.57,.69-1.5,1.5h0Z"/>
      <path class="cls-4" d="M632.84,59.63c2.46,6.57,5.11,13.08,7.95,19.49,1.4,3.16,2.91,6.28,4.33,9.43s2.54,6.22,2.68,9.57c.08,1.92,3.08,1.93,3,0-.3-6.87-4.08-13.07-6.84-19.21-2.96-6.61-5.71-13.31-8.24-20.09-.67-1.79-3.57-1.02-2.89,.8h0Z"/>
      <path class="cls-5" d="M393.13,416.76c2.43,9.8,8.56,18.42,16.96,24.01l1.16-2.74c-2.49-1.02-4.09-4.25-5.49-6.37-1.68-2.55-3.27-5.18-4.74-7.86-2.96-5.38-5.47-11-7.51-16.79-.64-1.81-3.54-1.03-2.89,.8,2.23,6.31,4.98,12.45,8.25,18.29,1.6,2.87,3.33,5.66,5.18,8.38,1.74,2.57,3.44,5.23,6.42,6.45,1.65,.67,2.49-1.85,1.16-2.74-7.76-5.16-13.34-13.18-15.58-22.22-.46-1.87-3.36-1.08-2.89,.8h0Z"/>
      <path class="cls-5" d="M408.63,440.11c1.24,2.41,3.55,3.93,5.77,5.33,2.74,1.73,5.48,3.45,8.22,5.18,1.64,1.03,3.15-1.56,1.51-2.59-2.59-1.63-5.18-3.26-7.77-4.89-1.94-1.22-4.06-2.43-5.14-4.54-.88-1.72-3.47-.2-2.59,1.51h0Z"/>
      <path class="cls-5" d="M403.92,432.6c2.3,2.87,4.52,5.83,6.92,8.62,1.03,1.2,2.25,2.12,3.6,2.92,1.21,.72,2.44,1.37,3.38,2.43,1.29,1.44,3.4-.68,2.12-2.12-.99-1.11-2.26-1.89-3.53-2.63s-2.46-1.55-3.46-2.72c-2.4-2.79-4.62-5.75-6.92-8.62-.51-.63-1.59-.53-2.12,0-.63,.63-.51,1.49,0,2.12h0Z"/>
      <path class="cls-5" d="M406.41,384.89c-.66,6.9,1.96,13.81,4.31,20.17s5.19,12.68,8.42,18.72c.91,1.7,3.5,.19,2.59-1.51-3.1-5.81-5.82-11.82-8.11-18s-4.84-12.74-4.21-19.37c.18-1.92-2.82-1.91-3,0h0Z"/>
      <path class="cls-5" d="M405.78,376.13c-.38,8.26,1.28,16.46,4.76,23.95,.81,1.75,3.4,.23,2.59-1.51-3.25-7.01-4.71-14.72-4.35-22.43,.09-1.93-2.91-1.93-3,0h0Z"/>
      <path class="cls-4" d="M460.38,390.21c.93,4.87,1.87,9.75,2.8,14.62,.15,.8,1.11,1.25,1.85,1.05,.83-.23,1.2-1.05,1.05-1.85-.93-4.87-1.87-9.75-2.8-14.62-.15-.8-1.11-1.25-1.85-1.05-.83,.23-1.2,1.05-1.05,1.85h0Z"/>
      <path class="cls-7" d="M450.03,378.14c5.69,2.51,9.4,7.83,11.17,13.66,2.25,7.41,1.5,15.33,.83,22.92-.17,1.92,2.83,1.91,3,0,.71-8.09,1.44-16.58-1.16-24.43-2.07-6.22-6.19-12.03-12.32-14.74-1.75-.77-3.28,1.81-1.51,2.59h0Z"/>
      <path class="cls-7" d="M466.12,397.84c.23,5.36,.11,10.71-.37,16.05l2.8-.76c-1.31-2.03-.98-4.48-.77-6.78s.4-4.86-.53-7.13c-.48-1.18-2.64-1.65-2.89,0-.5,3.28-1.4,6.48-2.76,9.5l2.8,.76c.22-3.79,.66-7.64,.52-11.43-.13-3.43-1.17-6.64-2.98-9.55s-3.92-5.21-6.17-7.55c-2.37-2.47-4.79-5.07-7.98-6.45-1.75-.76-3.28,1.83-1.51,2.59,2.92,1.26,5.07,3.59,7.23,5.84s4.22,4.48,5.84,7.09,2.55,5.56,2.59,8.73c.04,3.57-.33,7.17-.54,10.74-.08,1.43,2.18,2.12,2.8,.76,1.47-3.27,2.52-6.67,3.06-10.22h-2.89c1.93,4.73-1.33,10.07,1.6,14.63,.84,1.31,2.66,.71,2.8-.76,.48-5.34,.6-10.7,.37-16.05-.08-1.92-3.08-1.93-3,0h0Z"/>
      <path class="cls-7" d="M429.66,442.25c5.49,1.08,11.36,1.14,16.64-.92s9.24-6.42,12.84-10.9l-2.36-1.82c-2.62,3.6-5.82,6.97-9.09,9.99s-7.44,3.81-11.77,4.42c-1.9,.27-1.09,3.16,.8,2.89,4.72-.67,9.14-1.64,12.79-4.91s7.02-6.97,9.87-10.88c.99-1.36-1.29-3.15-2.36-1.82-3.22,4.01-6.6,8.17-11.52,10.13s-10.08,1.9-15.05,.92c-1.89-.37-2.69,2.52-.8,2.89h0Z"/>
      <path class="cls-7" d="M405.18,428.32c-.73,3.14,1.56,5.88,3.49,8.11s4.31,4.25,6.84,5.87c5.04,3.23,10.97,5,16.96,5.04,1.93,.01,1.93-2.99,0-3-5.09-.03-10.07-1.44-14.46-4.02-2.16-1.27-4.15-2.81-5.91-4.59-.9-.91-1.75-1.88-2.51-2.91s-1.82-2.34-1.51-3.69c.44-1.88-2.45-2.68-2.89-.8h0Z"/>
      <path class="cls-5" d="M427.42,434.96c2.42,2.5,5.54,3.94,8.98,4.31,1.68,.18,2.03-2.58,.4-2.95-1.46-.33-2.92-.66-4.39-.98l-.4,2.95c2.75-.24,5.47,.6,8.21,.26s4.96-1.6,7.09-3.09c4.27-2.98,8.46-6.31,11.34-10.71,1.06-1.62-1.53-3.12-2.59-1.51-1.88,2.84-3.94,5.54-6.19,8.09-1.17,1.33,.28,3.04,1.82,2.36,2.94-1.31,5.08-3.7,6.29-6.65,.74-1.78-2.17-2.56-2.89-.8-.92,2.24-2.73,3.89-4.91,4.86l1.82,2.36c2.42-2.74,4.65-5.64,6.66-8.69l-2.59-1.51c-2.59,3.95-6.44,6.96-10.27,9.63-1.86,1.3-3.91,2.56-6.22,2.75-2.53,.21-5.03-.55-7.57-.33-1.58,.14-2.16,2.55-.4,2.95,1.46,.33,2.92,.66,4.39,.98l.4-2.95c-2.64-.28-5.03-1.53-6.86-3.43-1.34-1.39-3.46,.73-2.12,2.12h0Z"/>
      <path class="cls-5" d="M442.59,377.19c3.7,2.32,7.12,5.04,10.18,8.16,1.49,1.51,2.91,3.1,4.2,4.78s2.55,3.69,2.3,5.96c-.09,.81,.75,1.49,1.5,1.5,.88,0,1.42-.7,1.5-1.5,.26-2.47-.81-4.81-2.21-6.79s-3.02-3.83-4.7-5.58c-3.36-3.49-7.17-6.55-11.27-9.12-1.64-1.03-3.15,1.57-1.51,2.59h0Z"/>
      <path class="cls-5" d="M453.15,284.19c3.97,4.63,6.14,10.55,8.76,15.98,2.85,5.9,5.92,11.69,9.18,17.37,.96,1.67,3.55,.16,2.59-1.51-3.34-5.82-6.48-11.76-9.39-17.8-2.68-5.57-4.96-11.41-9.03-16.15-1.26-1.47-3.37,.66-2.12,2.12h0Z"/>
      <path class="cls-5" d="M455.31,284.78c4.5,4.2,6.43,10.32,8.45,15.96,2.39,6.68,4.59,13.43,6.6,20.24,.55,1.85,3.44,1.06,2.89-.8-2.11-7.12-4.41-14.17-6.93-21.15-2.11-5.84-4.23-12.03-8.9-16.38-1.41-1.32-3.54,.8-2.12,2.12h0Z"/>
      <path class="cls-5" d="M542.05,326.16c.56,3.61,.11,7.29-1.16,10.71h2.89c-.38-1.98,.74-4.17,1.4-5.98,.78-2.13,1.59-4.26,2.42-6.37l-2.95-.4c-.03,1.24-.82,2.18-1.93,2.67l2.05,.54c-.51-1.19-.33-2.6,.31-3.7l-2.8-.76c.09,1.9,.18,3.8,.27,5.69s3.09,1.93,3,0-.18-3.8-.27-5.69c-.07-1.45-2.02-2.09-2.8-.76-1.22,2.11-1.26,4.52-.31,6.73,.35,.8,1.39,.83,2.05,.54,2.06-.9,3.35-3.04,3.41-5.26,.02-.74-.58-1.39-1.3-1.47-.79-.09-1.36,.36-1.65,1.07-.9,2.29-1.77,4.59-2.61,6.9s-1.69,4.57-1.21,7.05c.12,.64,.83,1.1,1.45,1.1,.7,0,1.22-.48,1.45-1.1,1.46-3.94,1.8-8.16,1.16-12.3-.12-.8-1.13-1.24-1.85-1.05-.86,.23-1.17,1.04-1.05,1.85h0Z"/>
      <path class="cls-2" d="M732.22,24.18l8.78-.07c1.44-.01,2.11-2.09,.76-2.8-2.75-1.44-5.88-2.12-8.98-1.82-.78,.07-1.54,.64-1.5,1.5,.03,.75,.66,1.58,1.5,1.5,.67-.06,1.34-.09,2.01-.06,.8,.03,1.16,.08,1.82,.21s1.31,.3,1.94,.52c.72,.25,.98,.37,1.69,.74l.76-2.8-8.78,.07c-.78,0-1.54,.69-1.5,1.5s.66,1.51,1.5,1.5h0Z"/>
      <path class="cls-2" d="M751.5,23.57c-1.33,2.35-2.67,4.7-4,7.05l2.74,1.16c.1-.38,.22-.74,.36-1.11,.1-.27-.07,.15,0-.02,.04-.09,.08-.18,.12-.27,.08-.18,.17-.35,.27-.52,.18-.32,.38-.64,.6-.94,.1-.14,.09-.19,.01-.02,.04-.08,.13-.16,.19-.23,.14-.16,.28-.32,.43-.48,.54-.57,.6-1.57,0-2.12s-1.54-.6-2.12,0c-1.32,1.37-2.28,3.06-2.76,4.9-.19,.73,.18,1.48,.87,1.77s1.5,.04,1.87-.61c1.33-2.35,2.67-4.7,4-7.05,.39-.68,.18-1.67-.54-2.05s-1.64-.19-2.05,.54h0Z"/>
      <path class="cls-2" d="M752.86,25.35c-1.21,2.55-2.41,5.11-3.62,7.66-.33,.71-.22,1.65,.54,2.05,.67,.35,1.69,.22,2.05-.54,1.21-2.55,2.41-5.11,3.62-7.66,.33-.71,.22-1.65-.54-2.05-.67-.35-1.69-.22-2.05,.54h0Z"/>
      <path class="cls-2" d="M754.49,26.39c1.93,0,1.93-3,0-3s-1.93,3,0,3h0Z"/>
      <path class="cls-7" d="M632.75,440c-.81,4.18,.62,8.13,2.51,11.81s4.08,7,4.2,11.06c.06,1.93,3.06,1.93,3,0-.12-3.94-1.88-7.43-3.7-10.84s-3.9-7.24-3.12-11.23c.37-1.89-2.52-2.69-2.89-.8h0Z"/>
      <path class="cls-7" d="M644.27,470.51c.62,2.76,1.97,5.3,3.83,7.41,.52,.59,1.6,.57,2.12,0,.58-.63,.56-1.49,0-2.12-.1-.11-.2-.23-.29-.34-.08-.09-.25-.24-.28-.35,.02,.08,.14,.19,.03,.04-.06-.08-.11-.15-.17-.23-.09-.12-.17-.24-.26-.37-.35-.51-.66-1.05-.95-1.6-.14-.27-.26-.54-.39-.81-.09-.2-.03,.02,.02,.05-.03-.02-.07-.17-.08-.21-.06-.14-.11-.28-.16-.42-.22-.6-.39-1.22-.53-1.84-.17-.77-1.1-1.29-1.85-1.05-.8,.26-1.23,1.02-1.05,1.85h0Z"/>
      <path class="cls-7" d="M649.62,471.57l-.19-.57c-.05-.2-.14-.37-.27-.51-.11-.16-.25-.29-.42-.39-.17-.11-.36-.17-.56-.18-.2-.04-.4-.04-.6,.03l-.36,.15c-.23,.13-.4,.31-.54,.54l-.15,.36c-.07,.27-.07,.53,0,.8l.19,.57c.05,.2,.14,.37,.27,.51,.11,.16,.25,.29,.42,.39,.17,.11,.36,.17,.56,.18,.2,.04,.4,.04,.6-.03l.36-.15c.23-.13,.4-.31,.54-.54l.15-.36c.07-.27,.07-.53,0-.8h0Z"/>
      <path class="cls-7" d="M633.49,492.77c3.72-.44,7.43-.09,10.99,1.07,.77,.25,1.64-.29,1.85-1.05,.22-.81-.27-1.59-1.05-1.85-3.78-1.23-7.84-1.64-11.79-1.17-.8,.09-1.5,.62-1.5,1.5,0,.74,.69,1.6,1.5,1.5h0Z"/>
      <path class="cls-7" d="M692.08,456.71c1.93,0,1.93-3,0-3s-1.93,3,0,3h0Z"/>
      <path class="cls-7" d="M700.54,475.04c1.93,0,1.93-3,0-3s-1.93,3,0,3h0Z"/>
      <path class="cls-7" d="M691.14,456.24c1.93,0,1.93-3,0-3s-1.93,3,0,3h0Z"/>
      <path class="cls-7" d="M628.53,276.19l2.09-3.79-2.59-1.51c-3.04,5.86-4.05,12.38-4.49,18.9-.47,7.08-.7,14.23-.64,21.32,.12,12.92,1.9,26.16,8.58,37.46,3.32,5.61,7.76,10.51,13.26,14.04,1.63,1.05,3.14-1.55,1.51-2.59-9.39-6.03-15.12-16.29-17.87-26.89-3.39-13.08-2.63-26.93-2.01-40.3,.32-6.97,.98-14.14,4.25-20.44,.89-1.71-1.66-3.21-2.59-1.51l-2.09,3.79c-.93,1.69,1.66,3.21,2.59,1.51h0Z"/>
      <path class="cls-4" d="M743.49,17.83h12.85c1.93,0,1.93-3,0-3h-12.85c-1.93,0-1.93,3,0,3h0Z"/>
      <path class="cls-4" d="M739.96,17.51h3.53c.38,0,.79-.17,1.06-.44s.46-.69,.44-1.06c-.04-.81-.66-1.5-1.5-1.5h-3.53c-.38,0-.79,.17-1.06,.44s-.46,.69-.44,1.06c.04,.81,.66,1.5,1.5,1.5h0Z"/>
      <path class="cls-4" d="M533.35,21.07l15.96-.84c1.94-.1,1.92-2.86,0-3-3.41-.26-6.78-.1-10.16,.38-1.33,.19-1.38,2.14-.36,2.74,3.12,1.83,6.68,.95,10.05,.47,3.96-.56,7.96-.88,11.96-1.08s7.96-.27,11.94-.3c1.52-.01,9.84-.97,8.9,2.29-.53,1.86,2.36,2.65,2.89,.8,.46-1.61-.09-3.28-1.3-4.43-1.3-1.23-3.07-1.59-4.8-1.67-4.39-.2-8.86,.02-13.25,.15s-8.76,.37-13.12,.85c-2.1,.23-4.18,.55-6.27,.85-1.85,.27-3.81,.48-5.49-.51l-.36,2.74c3.1-.45,6.24-.51,9.37-.28v-3l-15.96,.84c-1.92,.1-1.93,3.1,0,3h0Z"/>
      <path class="cls-4" d="M533.29,21.44c-.1,.88-.2,1.76-.29,2.64-.04,.36,.2,.82,.44,1.06,.26,.26,.69,.46,1.06,.44s.79-.14,1.06-.44l.23-.3c.14-.23,.2-.49,.2-.76,.1-.88,.2-1.76,.29-2.64,.04-.36-.2-.82-.44-1.06-.26-.26-.69-.46-1.06-.44s-.79,.14-1.06,.44l-.23,.3c-.14,.23-.2,.49-.2,.76h0Z"/>
      <g>
        <path class="cls-2" d="M26,331.31c-.88,0-1.68-.09-2.45-.29-.43-.11-.75-.3-.96-.46-.42-.22-.84-.45-1.25-.69-.46-.23-1.55-.8-1.85-2.08-.28-1.2,.27-2.1,.52-2.48,.21-.7,.36-1.44,.42-2.15l.04-.42,.17-.38c.06-.14,.13-.28,.17-.44,.93-3.39,1.9-6.79,2.87-10.2,4.41-15.46,8.97-31.44,9.99-47.52v-.15s.04-.14,.04-.14c1.96-10.72,1.54-21.99,1.14-32.88-.18-4.76-.36-9.68-.34-14.51,.07-20.62,0-41.56-.18-62.23-.17-18.77-.46-37.71-.84-56.3-.04-1.81-.07-3.61-.09-5.4-.23-14.5-.45-28.2-4.98-41.88-2.26-6.83-6.64-12.71-11.04-18.06-2.35-2.86-4.94-5.83-7.92-8.12-.49-.38-1.16-.74-1.88-1.12-1.06-.57-2.16-1.16-3.11-2.02-.42-.38-2.58-3.5-1.78-5.56,.26-.66,.75-1.18,1.37-1.46,.36-.34,.85-.81,1.16-1.13,1.07-2.51,4.93-2.57,6.47-2.6,3.79,0,7.54-.04,11.29-.07,3.77-.04,7.53-.07,11.3-.07,1.44,0,2.88,0,4.32,.02,5.58,.05,12.16,.12,18.87,.32,3.35,.1,6.44,.22,9.45,.36,2.03,.1,4.06,.21,6.09,.33l5.08,.29c2.14,.12,4.26,.25,6.32,.25,.56,0,1.11,0,1.67-.03,1.32-.05,2.63-.17,4.01-.29,1.11-.1,2.22-.2,3.33-.27,2.43-.14,4.61-.28,6.74-.65,1.14-.2,2.17-.44,3.15-.74,.39-.12,.82-.31,1.27-.5,.57-.25,1.23-.53,1.93-.74,1.6-.46,3.11-1.06,4.72-1.69,1.66-.65,3.37-1.32,5.21-1.85,1.87-.57,3.78-.94,5.63-1.29,2.02-.39,3.93-.75,5.76-1.37l.1-.03c.33-.1,.67-.14,1-.14,1.55,0,2.94,1.04,3.46,2.58,.53,1.57,.04,3.2-1.23,4.17-.71,.51-1.45,.89-2.11,1.22-.37,.19-.74,.37-1.06,.57-4.8,2.98-9.35,6.54-13.54,10.59l-1.72,1.69c-3.58,3.64-6.89,7.75-9.82,12.21l2.01,249.15c.09,.27,.17,.54,.27,.8l.04,.11,.03,.11c.48,1.79,1.09,3.51,1.81,5.11,.08,.15,.16,.29,.22,.43,.31,.62,.63,1.23,.97,1.81,.07,.1,.33,.52,.33,.52,.48,.77,.9,1.37,1.34,1.91l.16,.19,.02,.05s.04,.04,.05,.06c1.69-.14,4.88-.87,6.5-1.24,.98-.23,1.47-.34,1.78-.38l64.74-9.87c.8-.12,1.65-.2,2.55-.28,2.1-.19,4.72-.42,5.81-1.29,3.2-2.52,5.1-6.93,6.95-11.19,.49-1.13,.97-2.23,1.46-3.28l.77-1.64c2.93-6.23,5.71-12.11,7.95-18.41,.24-.82,.79-2.07,1.76-4.29,1.48-3.38,3.73-8.49,4.96-11.93,1.04-2.9,1.96-5.9,2.75-8.9,.05-.2,.09-.44,.14-.7,.21-1.19,.5-2.82,1.7-3.94,2.03-1.89,3.47-2.7,4.81-2.7,.16,0,.32,.01,.47,.03l.21,.03,.21,.07c3.87,1.29,2.94,7.09,2.19,11.74-.11,.69-.23,1.4-.25,1.69-.3,4.38-.52,8.86-.66,13.31-.28,9-.22,18.15,.17,27.2,.77,17.71,2.83,35.7,6.14,53.45,.03,.14,.07,.34,.12,.56,.5,2.18,.83,4.1-.14,5.52-.38,.55-1.27,1.48-2.99,1.48h0c-1.42,0-2.94-.67-3.95-1.11l-2.48-1.06,.12-.35c-.16,.01-.33,.02-.49,.02-1.26,0-2.46-.31-3.52-.58-.37-.09-.73-.19-1.09-.26-.73-.15-1.48-.23-2.29-.23-1.63,0-3.31,.32-4.58,.59-.63,.14-1.26,.29-1.89,.44-1.91,.46-3.85,.51-5.33,.51-.7,0-1.41-.02-2.11-.03-.66-.01-1.31-.03-1.96-.03h-.34c-2.27,.02-4.54,.03-6.8,.04-4.28,.02-8.7,.05-13.04,.12-42.16,.74-87.1,1.47-132.28,1.47l-16.24,.22c-.64,0-1.44,.15-2.29,.29-1.13,.19-2.4,.41-3.73,.41Z"/>
        <path class="cls-4" d="M128.93,5c1.04,0,1.62,1.58,.72,2.26-.88,.63-2.1,1.12-2.98,1.67-4.97,3.09-9.66,6.76-13.95,10.91l-1.73,1.7c-3.97,4.04-7.51,8.51-10.58,13.26l2.02,250.29c.14,.42,.27,.85,.42,1.27,.51,1.91,1.17,3.79,2,5.61,.07,.11,.13,.22,.17,.32,.35,.71,.72,1.41,1.11,2.08,.13,.19,.24,.39,.37,.58,.46,.74,.94,1.43,1.48,2.1,.02,.04,.07,.09,.09,.13,.27,.33,.58,.64,.88,.95,.12,.12,.41,.17,.82,.17,2.26,0,8.16-1.54,9.04-1.68,7.67-1.17,15.34-2.34,23.01-3.51l41.73-6.36c2.85-.44,7.29-.3,9.54-2.08,4.61-3.64,6.71-10.23,9.12-15.36,3.18-6.77,6.39-13.43,8.89-20.49,0,0-.02,.01-.02,.01-.21,0,4.56-10.15,6.66-16.02,1.07-2.99,2.01-6.03,2.81-9.11,.26-.99,.33-2.69,1.13-3.44,.65-.61,2.25-2.03,3.11-2.03,.04,0,.07,0,.1,0,2.36,.79,.37,8.98,.24,10.89-.3,4.46-.52,8.93-.66,13.41-.28,9.13-.22,18.27,.17,27.39,.78,18.05,2.87,36.04,6.18,53.8,.17,.9,.91,3.42,.37,4.21-.19,.28-.52,.39-.92,.39-1.04,0-2.54-.73-3.3-1.05,.18-.53,.75-.84,1.3-.84,.31,0,.62,.1,.85,.32-.37-1.54-.74-3.08-1.1-4.61-.11,.43-.54,.64-.99,.64-.33,0-.67-.11-.91-.33-.57-.52-.71-1.35-.82-2.11-.36-2.51-.72-5.02-1.08-7.53,.4,4.2,.74,8.41,1.03,12.63-.57,.29-1.17,.39-1.78,.39-1.33,0-2.75-.5-4.09-.79-.94-.2-1.88-.28-2.81-.28-1.72,0-3.42,.28-5.11,.65-.65,.14-1.29,.29-1.94,.45-1.52,.36-3.13,.45-4.75,.45-1.36,0-2.73-.06-4.07-.06-.12,0-.24,0-.36,0-6.62,.06-13.24,.05-19.86,.17-44.03,.77-88.19,1.46-132.23,1.46-5.43,.07-10.85,.15-16.28,.22-1.78,.02-3.89,.71-5.99,.71-.62,0-1.24-.06-1.84-.21-.08-.02-.14-.11-.21-.15-.47-.24-.95-.49-1.4-.77-.07-.04-.56-.24-.62-.46-.08-.33,.29-.61,.4-.95,.3-.92,.51-1.91,.59-2.89,.11-.25,.22-.51,.3-.8,5.25-19.11,11.7-38.35,12.95-58.23,2.87-15.72,.78-31.96,.84-47.83,.07-20.76,0-41.51-.18-62.27-.17-18.78-.45-37.56-.84-56.33-.34-16.36,.03-32.24-5.2-48.01-2.34-7.06-6.81-13.18-11.48-18.86-2.52-3.06-5.17-6.08-8.32-8.51-1.45-1.12-3.51-1.81-4.82-3.01-.31-.29-1.63-2.91-.99-2.91,.03,0,.06,0,.1,.02h0s2.28-2.13,2.17-2.16c.17-1.27,3.43-1.32,4.28-1.34,7.52,0,15.03-.14,22.55-.14,1.43,0,2.87,0,4.3,.02,.01,0,.02,0,.03,0,6.26,.05,12.53,.13,18.79,.32,3.14,.09,6.27,.21,9.4,.36,2.5,.12,5,.27,7.5,.41,.58,.03,1.16,.07,1.73,.1,.64,.04,1.27,.07,1.91,.11,2.15,.12,4.31,.25,6.47,.25,.59,0,1.17,0,1.76-.03,2.47-.09,4.93-.42,7.4-.56,2.35-.13,4.7-.28,7.01-.68,1.17-.2,2.33-.46,3.46-.81,1.08-.33,2.09-.92,3.16-1.23,3.44-.99,6.48-2.55,9.93-3.53,3.78-1.15,7.74-1.43,11.5-2.69,.11-.03,.21-.05,.31-.05m0-5h0c-.57,0-1.14,.08-1.7,.24l-.1,.03-.1,.03c-1.67,.56-3.5,.91-5.44,1.28-1.9,.37-3.87,.74-5.89,1.35-1.94,.56-3.7,1.25-5.4,1.92-1.55,.61-3.01,1.18-4.5,1.61-.86,.25-1.62,.58-2.24,.85-.39,.17-.75,.33-1.01,.41-.88,.27-1.81,.49-2.84,.66-2,.34-4.1,.48-6.45,.62-1.17,.07-2.31,.17-3.42,.27-1.35,.12-2.63,.24-3.87,.28-.53,.02-1.05,.03-1.58,.03-1.99,0-3.99-.12-6.1-.24h-.07s-1.91-.11-1.91-.11h-.16s-1.58-.1-1.58-.1l-1.37-.08c-2.06-.12-4.11-.24-6.17-.34-3.03-.15-6.13-.26-9.5-.36-6.73-.2-13.33-.27-18.89-.32-1.48-.01-2.93-.02-4.38-.02-3.78,0-7.61,.04-11.32,.07-3.68,.03-7.49,.07-11.23,.07h-.08c-.51,0-1.87,.03-3.23,.28-2.98,.55-4.47,1.97-5.22,3.29-.19,.18-.41,.39-.61,.59-1,.57-1.8,1.48-2.24,2.61-1.42,3.66,1.88,7.81,2.43,8.31,1.18,1.08,2.47,1.77,3.61,2.38,.59,.32,1.2,.64,1.53,.9,2.62,2.02,4.9,4.55,7.51,7.73,4.24,5.16,8.46,10.81,10.59,17.26,4.41,13.31,4.63,26.82,4.85,41.13,.03,1.8,.06,3.61,.09,5.42,.39,18.67,.67,37.6,.84,56.27,.19,20.63,.25,41.56,.18,62.2-.02,4.88,.17,9.82,.34,14.61,.4,10.76,.81,21.89-1.1,32.34l-.05,.29-.02,.29c-.99,15.81-5.52,31.66-9.89,46.99-.95,3.33-1.94,6.78-2.87,10.18-.02,.04-.04,.08-.05,.12l-.34,.77-.07,.84c-.04,.45-.12,.91-.24,1.36-.75,1.33-.96,2.68-.64,4.04,.26,1.12,1,2.66,3.08,3.71,.4,.24,.8,.45,1.17,.65,.51,.34,1.06,.59,1.64,.73,.97,.24,1.97,.36,3.05,.36,1.54,0,2.93-.24,4.16-.45,.72-.12,1.47-.25,1.91-.26l16.24-.22c45.16,0,90.11-.72,132.29-1.47,4.33-.08,8.75-.1,13.02-.12,2.27-.01,4.53-.02,6.8-.04h.31c.63,0,1.26,.01,1.9,.03,.72,.02,1.44,.03,2.16,.03,1.61,0,3.74-.07,5.91-.58,.61-.15,1.22-.29,1.84-.42,1.15-.25,2.65-.54,4.05-.54,.64,0,1.22,.06,1.77,.17,.33,.07,.66,.16,.99,.24,.88,.23,1.94,.49,3.1,.6l2.59,1.1,.29,.13c1.53,.67,3.17,1.32,4.96,1.32,2.09,0,3.93-.93,5.05-2.56,1.68-2.45,1.01-5.37,.52-7.5-.04-.18-.08-.34-.1-.46-3.28-17.63-5.33-35.5-6.1-53.1-.39-9.01-.45-18.1-.17-27.02,.14-4.4,.36-8.85,.65-13.22,.02-.21,.13-.93,.22-1.46,.8-4.99,2.02-12.54-3.87-14.51l-.41-.14-.43-.06c-.28-.04-.56-.06-.84-.06-2.03,0-3.98,1.01-6.52,3.37-1.81,1.69-2.22,3.97-2.46,5.33-.03,.18-.06,.36-.1,.5-.77,2.92-1.67,5.85-2.68,8.69-1.2,3.36-3.42,8.42-4.89,11.77-.51,1.15-.94,2.13-1.23,2.84-.22,.53-.47,1.12-.64,1.77-2.19,6.12-4.91,11.9-7.8,18.02l-.78,1.66c-.51,1.09-1.01,2.24-1.49,3.34-1.72,3.98-3.51,8.09-6.21,10.22-.65,.42-3.15,.64-4.49,.76-.9,.08-1.83,.16-2.7,.3l-41.73,6.36-6.77,1.03-16.24,2.48c-.4,.06-.89,.17-1.97,.42-.92,.21-3.19,.73-4.82,1.01-.17-.25-.35-.51-.53-.81l-.04-.07-.05-.07-.08-.13c-.06-.1-.12-.2-.19-.3-.29-.5-.57-1.03-.84-1.56-.09-.2-.18-.37-.26-.51-.64-1.44-1.19-2.99-1.62-4.61l-.06-.23-.08-.22c-.04-.11-.08-.23-.12-.34l-2-248c2.73-4.07,5.79-7.83,9.1-11.2l1.7-1.67c4.03-3.89,8.44-7.35,13.09-10.23,.19-.12,.54-.3,.87-.47,.7-.36,1.57-.8,2.4-1.39l.04-.03,.04-.03c2.11-1.6,2.96-4.39,2.1-6.96-.86-2.57-3.2-4.29-5.83-4.29h0Z"/>
      </g>
      <g>
        <path class="cls-7" d="M207.19,502.4c-2.77,0-5.17-.13-6.57-1.79-1.38-1.64-1.1-4.02-.67-6.52,.14-.79,.04-1.69-.08-2.69-.94-7.42-3.02-14.37-5.22-21.72-.34-1.15-.69-2.31-1.03-3.46-1.97-6.7-4.57-15.53-7.12-24.49-4.76-16.7-9.28-33.71-13.42-50.58-1.21-4.93-2.34-9.97-3.44-14.85-2.53-11.3-5.16-22.98-8.92-34.03-1.38-4.05-2.85-8.16-4.27-12.12-2.54-7.1-5.17-14.44-7.41-21.81l-1.22-4.03c-2.9-9.59-5.89-19.5-9.74-28.88-3.85-9.41-8.22-20.08-14.66-28.5-1.6-2.1-3.34-4.28-5.37-5.93-.36-.29-.74-.57-1.12-.85-1.69-1.24-3.79-2.79-4.34-5.63-.36-1.89-.06-3.43,.9-4.6,1.09-1.32,2.87-1.96,5.45-1.96,.58,0,1.21,.03,1.91,.1,8.62,.78,17.92,1.16,28.43,1.16s22.19-.41,33.03-.81l10.8-.39c2.54-.09,5.17-.19,7.66-.62l.72-.13c1.02-.19,2.08-.39,3.23-.39,.25,0,.51,.01,.76,.03,2.35,.2,5.3,1.54,5.98,6.83,.91,7.14-6.6,10.12-13.22,12.76-3.01,1.2-6.12,2.43-8.21,3.93-1.84,1.32-3.29,2.45-3.88,3.94-.59,1.5-.29,3.39,.14,5.53,10.19,50.73,23.72,101.29,40.22,150.37l42.63-138.16c1.84-5.97,3.33-11.73,1.34-16.6-2.07-5.06-7.24-7.92-12.72-10.94-5.77-3.18-11.74-6.48-14.43-12.69l-1.14-2.62,2.85-.17c1.72-.1,3.45-.23,5.18-.36,3.74-.27,7.6-.56,11.42-.59,1.44-.01,2.88-.02,4.31-.02,8.81,0,17.75,.18,26.41,.35l3.36,.07c5.79,.11,11.46,.22,17.04,.27h0c.79,0,1.57-.07,2.39-.14,.9-.08,1.83-.16,2.75-.16,1.26,0,2.35,.18,3.29,.55l.74-9.33,2.98,13.98-.07,.02v.1c-.04,.36-.07,.72-.11,1.08-.09,.83-.22,1.51-.42,2.14-1.02,3.31-3.67,4.69-5.79,5.8-.97,.51-1.95,1-2.93,1.49-1.28,.65-2.57,1.29-3.84,1.98-3.82,2.05-8.11,4.67-10.98,8.59-1.49,2.04-2.59,4.43-3.6,6.7-4.82,10.92-9.28,23.18-14.04,38.57-5.84,18.86-11.12,38.21-16.23,56.92-2.57,9.4-5.22,19.12-7.92,28.68-3.07,12.26-6.56,24.59-9.95,36.52-6.96,24.52-14.16,49.88-17.86,75.86-.11,.8-.3,2.14-1.37,3.12-1.17,1.09-2.72,1.1-3.56,1.1l-19.05,.07Z"/>
        <path class="cls-5" d="M204.7,228.84c.2,0,.39,0,.59,.02,2.89,.24,3.84,2.52,4.17,5.09,1.07,8.39-13.74,9.88-20.61,14.81-1.83,1.31-3.75,2.74-4.57,4.83-.83,2.1-.4,4.45,.04,6.66,10.65,53,24.78,105.31,42.27,156.47,14.82-48.02,29.63-96.05,44.45-144.07,1.81-5.85,3.6-12.28,1.28-17.95-4.64-11.35-22.29-12.42-27.17-23.67,5.48-.33,11.01-.9,16.5-.94,1.43-.01,2.86-.01,4.3-.01,9.91,0,19.82,.22,29.73,.42,5.69,.11,11.37,.22,17.06,.27,.04,0,.07,0,.11,0,1.59,0,3.4-.31,5.06-.31,2.23,0,4.17,.55,4.93,3.15-.03,.34-.05,.67-.09,1.01-.07,.6-.16,1.19-.34,1.77-.76,2.46-2.68,3.51-4.81,4.62-2.25,1.18-4.55,2.28-6.79,3.48-4.37,2.35-8.67,5.11-11.65,9.18-1.58,2.17-2.73,4.62-3.81,7.07-5.56,12.6-10.06,25.64-14.13,38.79-8.78,28.37-16.1,57.07-24.17,85.64-9.44,37.75-22.34,73.91-27.86,112.64-.1,.7-.23,1.46-.75,1.94-.57,.53-1.43,.56-2.2,.57-6.27,.02-12.54,.05-18.81,.07-.08,0-.15,0-.23,0-5.44,0-6.16-.8-5.26-5.97,.19-1.08,.07-2.2-.07-3.29-1.12-8.78-3.83-17.05-6.32-25.5-2.4-8.15-4.79-16.3-7.12-24.47-4.78-16.75-9.25-33.59-13.4-50.51-4.01-16.34-6.97-33.11-12.41-49.05-3.86-11.31-8.19-22.43-11.67-33.87-3.38-11.12-6.61-22.32-11.02-33.09-4.03-9.86-8.42-20.46-14.93-28.96-1.7-2.22-3.53-4.5-5.69-6.27-1.87-1.53-4.26-2.7-4.77-5.31-.64-3.31,1.52-4.18,4.39-4.18,.56,0,1.14,.03,1.73,.09,9.56,.87,19.09,1.17,28.61,1.17,12.9,0,25.79-.56,38.75-1.02,1.71-.06,3.43-.12,5.14-.18,2.65-.1,5.31-.19,7.93-.65,1.2-.21,2.4-.49,3.61-.49m-22.61,24.25l.1-.09c.22-.27,.42-.56,.64-.83,.21-.44,.43-.87,.68-1.27-.59,.58-1.14,1.32-1.41,2.19m140.74-19.53c.04,.19,.08,.39,.12,.58-.04-.18-.08-.35-.13-.51,0-.02,0-.05,0-.07m-1.83-27.85l-1.64,20.84c-.46-.05-.95-.08-1.47-.08-1.01,0-1.99,.09-2.93,.17-.78,.07-1.52,.14-2.13,.14h-.07c-5.59-.05-11.24-.16-17.01-.27l-3.33-.07c-8.67-.17-17.64-.35-26.47-.35-1.44,0-2.88,0-4.32,.01-3.89,.03-7.79,.31-11.55,.59-1.7,.12-3.45,.25-5.16,.36l-5.71,.34,2.27,5.25c2.96,6.84,9.52,10.46,15.3,13.64,5.16,2.85,10.04,5.54,11.84,9.94,1.74,4.26,.33,9.65-1.4,15.25l-22.54,73.06-18.25,59.15c-15.58-47.15-28.42-95.6-38.19-144.22-.3-1.48-.67-3.33-.24-4.4,.42-1.07,1.96-2.17,3.19-3.05,1.89-1.36,4.89-2.55,7.78-3.7,3.34-1.33,6.8-2.71,9.49-4.64,4.76-3.42,5.33-7.45,4.97-10.23-.89-6.96-5.27-8.35-7.8-8.57-.3-.03-.61-.04-.93-.04h0c-1.33,0-2.53,.23-3.59,.42-.23,.04-.47,.09-.7,.13-2.35,.41-4.8,.5-7.38,.59l-2.57,.09-2.57,.09c-1.89,.07-3.77,.14-5.66,.21-10.82,.4-22,.81-32.95,.81s-19.69-.38-28.25-1.16c-.76-.07-1.45-.1-2.09-.1-1.18,0-4.77,0-6.99,2.69-.93,1.13-1.92,3.13-1.32,6.25,.7,3.61,3.25,5.49,5.12,6.86,.38,.28,.74,.54,1.04,.79,1.86,1.52,3.51,3.6,5.04,5.6,6.28,8.21,10.6,18.75,14.4,28.04,3.81,9.31,6.79,19.18,9.68,28.73,.4,1.33,.81,2.67,1.21,4,2.26,7.42,4.9,14.79,7.45,21.92,1.42,3.96,2.88,8.05,4.26,12.08,3.73,10.95,6.34,22.58,8.87,33.83,1.1,4.89,2.23,9.94,3.44,14.89,4.14,16.89,8.66,33.93,13.44,50.65,2.54,8.89,5.14,17.76,7.13,24.5,.34,1.16,.69,2.31,1.03,3.46,2.18,7.28,4.24,14.15,5.16,21.41,.1,.81,.19,1.58,.1,2.1-.5,2.87-.82,5.86,1.1,8.15,1.95,2.32,4.94,2.51,8.1,2.51h.25s9.4-.04,9.4-.04l9.41-.04c.95,0,3.17-.01,4.91-1.64,1.58-1.47,1.85-3.38,1.98-4.31,3.68-25.85,10.86-51.14,17.8-75.59,3.38-11.92,6.88-24.24,9.97-36.58,2.7-9.55,5.35-19.27,7.92-28.66,5.1-18.69,10.38-38.01,16.21-56.83,4.74-15.32,9.18-27.51,13.97-38.36,.96-2.17,2.01-4.44,3.38-6.32,2.63-3.6,6.69-6.07,10.31-8.01,1.24-.67,2.54-1.32,3.8-1.95,.99-.5,1.97-.99,2.95-1.5,2.32-1.21,5.5-2.87,6.78-6.98,.23-.75,.39-1.54,.5-2.51,.04-.38,.07-.76,.1-1.14l.05-.63h0s0-.02,0-.02v-.09s-.09-.31-.09-.31l-.04-.17-5.74-27.02h0Z"/>
      </g>
    </g>
  </g>
</svg>