<?xml version="1.0" encoding="UTF-8"?>
<svg id="Layer_2" data-name="Layer 2" xmlns="http://www.w3.org/2000/svg" viewBox="0 0 85.79 94.13">
  <defs>
    <style>
      .cls-1 {
        fill: #010101;
        stroke: #000;
        stroke-miterlimit: 10;
        stroke-width: .53px;
      }
    </style>
  </defs>
  <g id="Layer_1-2" data-name="Layer 1">
    <polygon class="cls-1" points="85.37 52.83 85.22 51.8 84.78 50.56 83.63 47.69 82.67 45.24 81.71 43.55 80.16 41.07 78.52 38.85 76.39 36.44 74.25 34.22 72.31 32.35 69.1 30.11 63.77 24.86 58.24 19.16 52.91 13.29 48.36 7.07 48.13 6.82 47.93 6.57 47.72 6.28 47.51 6.02 47.36 5.77 47.19 5.52 47.02 5.24 46.81 4.94 46.64 4.69 46.44 4.39 46.27 4.12 45.99 3.71 45.71 3.28 45.51 2.96 45.21 2.57 44.95 2.2 44.68 1.76 44.41 1.28 44.21 .87 44.02 .54 43.69 1.19 43.37 1.76 43.1 2.16 42.84 2.51 42.62 2.8 42.36 3.22 42.15 3.49 41.83 3.83 40.25 5.76 38.61 8.01 36.97 10.14 35.45 12.23 33.64 14.47 32.06 16.3 30.54 17.76 28.91 19.42 27.68 20.72 26.28 22.18 24.99 23.43 23.42 24.89 22.31 25.98 21.02 27.07 20.03 28.22 18.05 29.94 16.88 31.13 15.83 32.02 14.55 33.01 13.2 34.36 12.09 35.35 10.87 36.49 9.64 37.69 8.53 39.1 7.42 40.24 6.6 41.34 6.02 42.07 5.14 43.22 4.38 44.15 3.73 45.36 3.14 46.66 2.67 48.08 2.12 49.44 1.65 50.51 1.1 52.13 .69 53.31 .29 54.52 .28 55.76 .26 57.53 .4 58.99 .39 60.66 .71 62.49 1.12 63.86 1.62 65.08 2.45 66.46 3.36 67.61 4.62 68.84 5.7 70.21 6.62 71.21 7.96 72.13 9.21 72.9 10.89 73.75 12.57 74.45 13.83 74.99 15.42 75.31 17.19 75.93 18.61 76.17 20.21 76.56 21.81 76.65 23.58 76.51 25.18 76.37 26.86 76.23 28.1 76.24 29.04 76.05 29.94 75.8 31.06 75.67 32 75.37 32.97 75.06 33.96 74.73 35.06 74.38 36.12 73.9 37.21 73.38 38.15 72.88 39.08 72.38 40.05 71.91 40.08 72.27 40.1 73.26 39.88 74.3 39.69 75.2 39.18 76.23 38.8 77.16 38.26 78.28 37.82 79.74 37.12 81.51 36.2 83.07 35.28 84.91 34.29 86.54 33.37 88.24 32.08 90.28 30.78 92.11 29.61 93.65 56.77 93.85 58.3 93.86 57.14 92.82 56.24 91.86 55.34 90.93 54.27 89.83 53.44 88.52 52.54 87.18 51.62 85.76 50.94 84.29 50.52 83.6 49.95 82.78 49.67 81.92 49.16 80.89 48.98 80.07 48.65 79.25 48.37 78.26 48.14 77.44 47.91 76.41 47.72 75.68 47.49 74.86 47.45 73.92 47.42 72.98 47.47 71.85 47.81 72.26 48.49 72.54 49.37 72.96 50.36 73.42 51.19 73.77 52.26 74.23 53.51 74.62 54.46 74.93 55.57 75.18 56.75 75.47 57.74 75.65 58.58 75.72 59.64 75.9 60.82 75.98 61.58 75.99 62.31 76.14 63.03 76.14 63.82 76.15 64.79 76.15 65.13 76.16 65.57 75.97 66.28 75.97 67.09 75.83 67.74 75.68 68.34 75.46 68.89 75.24 69.84 74.93 71.08 74.58 72.33 74.27 73.48 73.74 74.28 73.43 75.68 72.63 77.18 71.78 78.23 71.3 79.18 70.63 80.03 69.69 80.93 69.02 81.69 68.3 82.19 67.54 83.14 66.38 83.7 65.43 84.15 64.4 84.56 63.32 84.74 62.36 85.15 61.12 85.29 59.9 85.35 59.24 85.49 58.61 85.5 57.2 85.51 56.07 85.52 54.85 85.53 53.78 85.37 52.83"/>
  </g>
</svg>